<svg xmlns="http://www.w3.org/2000/svg" viewBox="0 0 300 157.72"><defs><style>.cls-1{fill:#fff;}</style></defs><title>mc_wagon</title><g id="Layer_2" data-name="Layer 2"><g id="Layer_1-2" data-name="Layer 1"><rect class="cls-1" x="0.24" y="60.72" width="15" height="97" rx="6.3"/><rect class="cls-1" x="0.24" y="127.22" width="36" height="16.5"/><path class="cls-1" d="M279.24,123.67h16.25a0,0,0,0,1,0,0V144a5.71,5.71,0,0,1-5.71,5.71H285a5.71,5.71,0,0,1-5.71-5.71V123.67A0,0,0,0,1,279.24,123.67Z"/><path class="cls-1" d="M184.05,38.07a21.18,21.18,0,0,0-4.71,2c-1,.63-2,1.47-1.52,2.86s1.63,1.78,3,1.86a5,5,0,0,0,2-.54c1.26-.83,2.58-4.15,2.3-5.72C185,37.76,184.52,37.93,184.05,38.07Z"/><path class="cls-1" d="M149.22,30.15h.08c0,1.12,0,2.23,0,3.35s.46,1.2,1.35.7a6.94,6.94,0,0,0,3.86-7c-.11-1.87-.74-2.36-2.6-2-2.72.5-2.72.5-2.68,3.32C149.23,29.09,149.22,29.62,149.22,30.15Z"/><path class="cls-1" d="M165.21,26.79h.09v3.54c0,.8.31,1.11,1.08.67,2.13-1.22,3.75-2.78,4.06-5.42.4-3.53-.32-4.22-3.69-3.49-1.24.27-1.69.82-1.56,2A26.2,26.2,0,0,1,165.21,26.79Z"/><path class="cls-1" d="M209.7,59.57c-.94-2.72-1.79-5.19-2.8-8.1C205.54,55.94,205.78,56.59,209.7,59.57Z"/><path class="cls-1" d="M114.32,65A1.44,1.44,0,0,0,113,66.73c.06,1.48,0,3,0,4.43h.1c0,1.59,0,3.19,0,4.78,0,1,.23,1.12,1.12.6,2.94-1.71,4.15-4.39,4.56-7.58C119.42,64.23,118.94,63.84,114.32,65Z"/><path class="cls-1" d="M193.91,85.13a27.51,27.51,0,0,0-12,5.17c2,.19,4,.42,5.94.56,7.06.51,14.11,1.21,21.2.55A17,17,0,0,0,215.23,90c1.59-.79,1.72-1.86.4-3a11.1,11.1,0,0,0-5.06-2.4C205,83.28,199.45,84.12,193.91,85.13Z"/><path class="cls-1" d="M279.12,0H20.88A20.88,20.88,0,0,0,0,20.88V128H300V20.88A20.88,20.88,0,0,0,279.12,0ZM203.7,55.42c.6.17,1.08.13,1.18-.6.31-2.4,1-4.76.86-7.2a5.77,5.77,0,0,0-2-4L211.37,42c-1.63,3.16-.63,5.93.2,8.75,2,6.74,3.92,13.49,5.84,20.25a5.83,5.83,0,0,0,2.23,3.52l-7.74,1.67C213.49,74,213,72,212.46,70c-.48-1.83-1-3.64-1.4-5.49-.53-2.67-2.21-4.51-4.1-6.25-.78-.71-1.12-.65-1.28.48q-1.1,8-2.28,16a3.86,3.86,0,0,0,1,3l-3.78.92a42.52,42.52,0,0,0,1.82-7.6c.61-4.27,1.32-8.52,2-12.78.27-1.79-.08-2.15-1.92-2.09a3,3,0,0,0-2.67,1.46c-.29.5-.62,1.08-.25,1.66s.81-.09,1.23-.1a1.8,1.8,0,0,1,1.88,1.05,1.69,1.69,0,0,1-.54,2.07,1.84,1.84,0,0,1-2.45,0,4,4,0,0,1-1.35-3.83,3.08,3.08,0,0,1,2.23-2.71A5.12,5.12,0,0,1,203.7,55.42Zm-10.46-9.53c2-.32,4-.87,6.2-1.23-2.44,2.08-2.28,4.83-2.27,7.59,0,7.8,0,15.6,0,23.41a4.73,4.73,0,0,0,.94,3.2,25.31,25.31,0,0,1-4.59,1.1A5.76,5.76,0,0,0,195,75.83l.09-22.52c0-.21.06-.49-.48-.64l-2.34,8c-1,3.57-2.18,7.11-3,10.72-.41,1.67-1.63,1.46-2.7,1.7s-1.06-.9-1.28-1.51c-2-5.53-4-11.09-6.06-16.64a4.53,4.53,0,0,0-.91-1.94c-.4.49-.25,1-.25,1.51q0,12.67,0,25.36c0,1.13-.05,2.28,1.38,3.18l-7.84,1.77a5.73,5.73,0,0,0,1.64-4.66c0-8.21,0-16.43,0-24.65,0-1.86-.18-3.68-2.13-4.91,2.38-.49,4.63-.92,6.86-1.42,1-.23,1.31.34,1.6,1.14q2.63,7.32,5.31,14.64c.16.42.36.83.55,1.3.75-.53.72-1.31.91-2,1.7-5.53,3.39-11.06,5-16.62A2.16,2.16,0,0,1,193.24,45.89ZM179.74,18a67.09,67.09,0,0,0,.06,13.37c.1,1.27.11,2.93,1.73,3.1,1.43.14,1.93-1.35,2.4-2.49a12.66,12.66,0,0,0,.84-5.21c0-2.12-.17-4.24-.21-6.37a3.61,3.61,0,0,0-1.4-3.19l5.9-1.18c-1.48,2.43-1.05,4.77-1,7.08.1,3.84.3,7.67.27,11.51,0,1.62.29,2.46,2.08,2.19a7.42,7.42,0,0,1,1.41,0c-3.24.34-3.24.34-3.93,3.57-1,4.7-5.51,6.84-9.6,4.57a3.28,3.28,0,0,1-2-3.08,3,3,0,0,1,2.07-2.63A15.22,15.22,0,0,1,183,37.61c2-.27,2.51-1.19,2-3-.55-.26-.67.31-.94.54-3.11,2.56-7,1.26-7.71-2.67-.65-3.5-.34-7.07-.43-10.6a3.31,3.31,0,0,0-.81-2.72Zm-10.29,2.15c3.2-.52,4.17.46,4.08,3.73a7.31,7.31,0,0,1-1.91,5.36c-.52.5-.56.79.14,1.13a3.89,3.89,0,0,1,2,3.67c.13,2.89.26,5.79.42,8.68.07,1.16,0,2.37,1.28,3.22a20.63,20.63,0,0,1-4.2,1c-1.06.26-.93-.49-.95-1.16-.12-3.19-.27-6.37-.41-9.56a8.46,8.46,0,0,0-.53-3.12c-.55-1.27-1.53-1.46-2.51-.49A4.49,4.49,0,0,0,165.52,36c0,2.77.09,5.55.12,8.33a3.82,3.82,0,0,0,2.23,3.33l-7.06,1.51c1.3-1.68,1.14-3.37,1.1-5.07-.16-6.15-.27-12.29-.4-18.43,0-1.3.06-2.63-1.68-3.54C163.36,21.35,166.39,20.61,169.45,20.12Zm-.3,34.73a6.34,6.34,0,0,0-3.81-1.62c-1.46,0-2.13.36-2.07,2,.11,3.36,0,6.73,0,10.1,0,5.79,0,11.58,0,17.37,0,1.26,0,2.5,1.73,3.29l-9.15,2c1.24-1.26,1.35-2.74,1.35-4.33,0-9-.06-18.08,0-27.12,0-1.67-.5-1.85-1.92-1.41a8.68,8.68,0,0,0-4,2.52c-.83-2.25-.56-2.79,1.62-3.27,4.84-1.08,9.69-2.08,14.51-3.23,1.4-.33,1.84,0,1.69,1.38A22.13,22.13,0,0,0,169.15,54.85ZM143.35,84a5.62,5.62,0,0,0-6.23,1.16,6,6,0,0,0-1.46,6.67A5.32,5.32,0,0,0,140.92,95c7.29,0,11.27-6.3,8.13-12.87a18.3,18.3,0,0,0-6.6-7.25,63.38,63.38,0,0,1-6.71-4.91c-4.53-4-3.4-10,2.29-12a17.51,17.51,0,0,1,7.27-1.28,3.65,3.65,0,0,1,3.5,2.54,3.74,3.74,0,0,1-1.25,4.31,2.81,2.81,0,0,1-4.06-.6,2.37,2.37,0,0,1,.71-3.4c.63-.39,1.48-.71,2-.12.64.79-.44,1-.84,1.37-.55.54-1.27,1-1,1.89a1.27,1.27,0,0,0,1,.88,2,2,0,0,0,2.15-.88,2.91,2.91,0,0,0-1.84-5A6.4,6.4,0,0,0,139,60.85a3.42,3.42,0,0,0,.45,4.11,17.78,17.78,0,0,0,3.37,2.87,79.59,79.59,0,0,1,7.54,6.44c4,3.91,5.2,9,3.12,13.36-2.65,5.55-8.4,9-13.83,8.28a6.24,6.24,0,0,1-3.86-2c-2.27-2.44-2.64-6.82-.83-9.94a7.58,7.58,0,0,1,8.4-3.51,5.12,5.12,0,0,1,4.24,4.44,5.78,5.78,0,0,1-2.3,5.78A7.18,7.18,0,0,1,141.89,92a6.57,6.57,0,0,0,3.37-4.35A3.05,3.05,0,0,0,143.35,84Zm10.92-60.58c2.33-.33,3.2.67,3.25,3s-.25,4.61-2.06,6.36c-.43.41-.35.63.19.88,1.67.78,2.08,2.27,2.15,3.95q.19,4.34.41,8.67c.06,1.18.15,2.36,1.56,3.12l-5.46,1.07c.16-3.48-.29-6.86-.37-10.25a22.6,22.6,0,0,0-.35-3.17c-.13-.77-.47-1.54-1.34-1.69s-1.39.51-1.83,1.16a5.36,5.36,0,0,0-.92,3.35c.07,2.24.15,4.48.12,6.73,0,1.74.26,3.28,2.29,4.38l-7,1.48a7.48,7.48,0,0,0,1-4.82q-.24-9.48-.4-18.95a3.37,3.37,0,0,0-1.61-3.29C147.58,24.64,150.9,23.84,154.27,23.37ZM131.79,28c3-.58,6-1.17,9-1.92,1.38-.34,1.86,0,1.66,1.35-.06.46,0,.92-.08,1.52-2.65-1.63-5,0-7.38.48-.57.1-.56.68-.56,1.16,0,2.84,0,5.67,0,8.51,0,.46,0,1.12.67,1,2.12-.45,4.52-.08,6.2-2a1.1,1.1,0,0,1,.11.32c0,1,.25,2-.13,2.8-.47.94-1.7.33-2.58.48-4.27.74-4.28.7-4.28,5,0,1.59,0,3.19,0,4.78,0,.56,0,1,.83,1a11,11,0,0,0,7.29-3.26c.18,3.73.18,3.74-3.09,4.41l-9.05,1.81c.19-8.09.05-16.14.08-24.18a2.07,2.07,0,0,0-.12-1C129.22,28.38,130.46,28.25,131.79,28ZM130,64.93c0,7.49.24,15,.38,22.47,0,.51,0,1,0,1.83-2.37-1.81-4.31-3.15-4.18-6.53.26-6.89,0-13.8-.19-20.7,0-1.49.31-1.46,1.54-1C129.39,61.8,130,63,130,64.93ZM94.32,28a43.73,43.73,0,0,1,11.27-2.93c1.17-.18,1.66.29,2,1.36,1.77,5.13,3.63,10.23,5.46,15.35.24.65.5,1.3.76,1.94l.4,0q1.79-6,3.55-12c.79-2.66,1.56-5.33,2.35-8,.16-.55.18-1.25.91-1.4,2.63-.55,5.27-1.08,8-1.47-2.34,2-2.61,4.54-2.59,7.3.07,8.1,0,16.19,0,24.29A3.7,3.7,0,0,0,128,55.87a31.74,31.74,0,0,1-6.44,1.32c2-1.58,1.63-3.71,1.64-5.74q.06-11.08.12-22.17a.88.88,0,0,0-.4-.71c-.52,1.76-1.05,3.51-1.55,5.28C119.87,39,118.41,44.19,117,49.37c-.25.94-.58,1.53-1.73,1.59s-1.18-.77-1.42-1.44c-1.72-4.77-3.41-9.56-5.12-14.33-.14-.38-.13-.84-.64-1.17-.41.49-.23,1.07-.22,1.59.06,6.85.16,13.71.22,20.56a3.75,3.75,0,0,0,1.73,3.64l-8.91,1.9c2.35-2.76,1.86-5.62,1.83-8.42-.1-7.57-.16-15.13-.26-22.7,0-2.8-.81-3.37-3.51-2.61-1.14.32-2.24.75-3.35,1.14-5.16,1.85-6,6.34-4.82,10.7a3.88,3.88,0,0,0,4.37,3.07,4.93,4.93,0,0,0,4.24-3.72c.39-2-.5-2.78-2.42-2.21-.39.11-.82.44-1.07-.09a1,1,0,0,1,.45-1.38A2.43,2.43,0,0,1,100,37.07c.78,2.63-.65,5.16-3.54,6.27a5.05,5.05,0,0,1-6.81-2.67A9.39,9.39,0,0,1,94.32,28Zm-7.17,68c-.05,2-.21,4-.28,6a1.45,1.45,0,0,1-1,1.48c-3.82,1.47-7.66,2.78-11.86,2.46a7.22,7.22,0,0,1-6.29-4.22,16.63,16.63,0,0,1-1.63-6.49,130.92,130.92,0,0,1,.23-20,9.35,9.35,0,0,1,5.65-8,18.32,18.32,0,0,1,8.78-1.72c1.58,0,3.2.23,4.72-1,0,2.59,0,4.87,0,7.16,0,.93-.88,1-1.57,1.2-.18-.59-.32-1.16-.53-1.71a4.12,4.12,0,0,0-4.78-2.74c-4.4.71-6.27,3-6.59,8.21-.42,7-.24,13.94,0,20.91a11,11,0,0,0,.37,2.27c.73,2.8,2.43,3.93,5.27,3.31,4-.9,7.35-2.71,8.07-7.31.09-.6.44-1.08,1-1C87.58,94.75,87.16,95.52,87.15,95.93Zm35.69,8.27c-1.54,5.35-6.43,8.22-11.66,6.8-7.19-2-10.92-7.71-10.94-13.36,0-4.25-.06-8.51-.19-12.76,0-1.46.12-3.39-1.59-3.74s-2.1,1.56-2.73,2.78a14.34,14.34,0,0,0-1.35,6.35c-.06,2.25,0,4.5,0,6.74A4.18,4.18,0,0,0,96,100.8l-7.38,1.58a7.17,7.17,0,0,0,1.55-5.2c-.17-9.28-.27-18.55-.42-27.83,0-1.53-.21-3-.33-4.8a6.22,6.22,0,0,0,4.69.41c-.37,5.53.57,10.91.33,16.28.67.33.77-.27,1-.49,2-1.55,4.19-2.35,6.59-1.39s3.07,3.2,3.1,5.53c0,3.6-.1,7.21-.2,10.81a19.64,19.64,0,0,0,1.78,9.47c2,4,5.54,5.74,9.28,4.71a7.7,7.7,0,0,0,4.09-11.51,6.38,6.38,0,0,0-7.78-2c-1.75.84-2.53,2.7-2.1,5s2.28,4.18,4,4.26a1.78,1.78,0,0,0,1.78-2.41c-.11-.51-.45-1-.59-1.47a1.13,1.13,0,0,1,.68-1.46c.71-.28,1.09.18,1.38.75a3.63,3.63,0,0,1-2.66,5.18c-3,.66-6.6-2-7.25-5.33-1.13-5.91,3.34-9.89,9.06-8C121.86,94.52,124.32,99,122.84,104.2ZM223.3,78.43a55.89,55.89,0,0,1-13.74,3.3c-.39.06-.82-.08-1.18.27.43.74,1.26.57,1.88.76a18.19,18.19,0,0,1,6,2.92c1.9,1.49,1.9,3.18,0,4.68-2.2,1.72-4.87,2-7.51,2.34a105.11,105.11,0,0,1-29.32-.59,2.87,2.87,0,0,0-2.25.75,61.1,61.1,0,0,1-24.48,10.67,38.14,38.14,0,0,1-19.25-1.23,22.07,22.07,0,0,1-10.58-7.12,11.85,11.85,0,0,0-2.6-2.64,4,4,0,0,1-1.8-3.89c0-2.48-.17-5-.31-7.43a6.35,6.35,0,0,0-.3-1.74c-.65-1.86-2-2.11-3.32-.65a5,5,0,0,0-1.18,3.44c0,2.07-.06,4.14,0,6.21,0,1.12-.36,1.52-1.43,1.72-2.76.53-2.79.58-2.84-2.32-.11-5.73-.16-11.47-.24-17.2a17.34,17.34,0,0,0-.08-1.77c-.37-3-1.24-3.8-3.52-3.46-3,.44-4.61,2.34-4.26,4.86a3.2,3.2,0,0,0,3,3,2.52,2.52,0,0,0,2.4-2.57c0-1.63-1-2.43-3.14-2.53A2.38,2.38,0,0,1,107,69.92a3.5,3.5,0,0,1-1.83,3.89c-1.45.91-3,1.26-4.43,0a5.37,5.37,0,0,1-1.86-4.93,4.08,4.08,0,0,1,3.23-3.61c5.29-1.22,10.6-2.38,16-3.29,3-.51,4.41,1,4.45,4s-.17,6.06-2.43,8.45c-.51.54-.29.73.26,1,1.73.87,2.29,2.47,2.38,4.26.15,3.06.21,6.14.35,9.21.19,4.27,2,7.61,5.85,9.65a28.77,28.77,0,0,0,21.43,2.67,70.38,70.38,0,0,0,21.59-9.13c.3-.19.6-.38.88-.59.07,0,.07-.2.18-.53-4.08-.14-8,.51-12.22,1a10,10,0,0,1,3.13-.91c1.1-.23,2.2-.44,3.31-.6a16.55,16.55,0,0,1,3.34-.35c3.4.24,6.2-1,9.06-2.77,6.15-3.88,13.14-5.1,20.29-5.5,5.3-.29,10.65-.13,15.79-1.8,4-1.32,7.66-3.09,9.66-7.17,1.65-3.35,1.7-6.53-.49-9.69-2.52-3.64-4.94-7.36-7.41-11a14.75,14.75,0,0,1-2.23-4.6,5,5,0,0,1,1.87-5.68,12.49,12.49,0,0,1,11.24-2.1,4.41,4.41,0,0,1,3.25,4.71,4.5,4.5,0,0,1-3.37,4.09,3.25,3.25,0,0,1-3.4-1.39,2.68,2.68,0,0,1-.29-3,2.77,2.77,0,0,1,2.66-1.73c.41,0,.88-.05,1.1.4s-.2.85-.56,1.14-.86.62-1.25,1-1.09,1-.75,1.83a2,2,0,0,0,2.06,1.09,3.09,3.09,0,0,0,2.8-3.61,4.08,4.08,0,0,0-2.84-3.71A6.08,6.08,0,0,0,221.64,42c-1.35,1.22-1,2.78-.52,4.29a15.43,15.43,0,0,0,2.58,4.21c2,2.68,4,5.4,5.82,8.25C234.58,66.82,232.1,74.75,223.3,78.43Z"/></g></g></svg>