<svg xmlns="http://www.w3.org/2000/svg" xmlns:xlink="http://www.w3.org/1999/xlink" viewBox="0 0 416.6 395.22"><defs><style>.cls-1,.cls-11{opacity:0.5;}.cls-2{fill:url(#radial-gradient);}.cls-3{fill:url(#radial-gradient-2);}.cls-4{fill:url(#radial-gradient-3);}.cls-5{fill:url(#radial-gradient-4);}.cls-6{fill:url(#radial-gradient-5);}.cls-7{fill:url(#radial-gradient-6);}.cls-8{fill:url(#radial-gradient-7);}.cls-9{fill:url(#radial-gradient-8);}.cls-10{fill:url(#radial-gradient-9);}.cls-11{font-size:36px;fill:#f0dc8c;font-family:SnellRoundhand, Snell Roundhand;}</style><radialGradient id="radial-gradient" cx="224.9" cy="138.59" r="145.81" gradientUnits="userSpaceOnUse"><stop offset="0" stop-color="#fff7d0"/><stop offset="1" stop-color="#d2a400"/></radialGradient><radialGradient id="radial-gradient-2" cx="223.05" cy="289.29" r="115.99" xlink:href="#radial-gradient"/><radialGradient id="radial-gradient-3" cx="118.07" cy="212.56" r="43.43" xlink:href="#radial-gradient"/><radialGradient id="radial-gradient-4" cx="31.68" cy="287.61" r="49.87" xlink:href="#radial-gradient"/><radialGradient id="radial-gradient-5" cx="387.19" cy="286.15" r="49.7" xlink:href="#radial-gradient"/><radialGradient id="radial-gradient-6" cx="49.43" cy="122.72" r="34.04" xlink:href="#radial-gradient"/><radialGradient id="radial-gradient-7" cx="378.43" cy="173.66" r="33.05" xlink:href="#radial-gradient"/><radialGradient id="radial-gradient-8" cx="57.02" cy="193.58" r="21.85" xlink:href="#radial-gradient"/><radialGradient id="radial-gradient-9" cx="167.39" cy="254.8" r="8.45" xlink:href="#radial-gradient"/></defs><title>merry_christmas</title><g id="Layer_2" data-name="Layer 2"><g id="Layer_1-2" data-name="Layer 1"><g id="DfRym4.tif" class="cls-1"><path class="cls-2" d="M335.81,219.73a36.19,36.19,0,0,0,6.74-10.23c1.31-2.86,2.27-5.87,3.37-8.81.75-2,1.35-4.24,4.16-4,2.22.16,4.25,2.7,4.36,5.39.13,3-1.16,5.8-2.22,8.54a58.87,58.87,0,0,1-14.54,21.07,8.49,8.49,0,0,0-2.72,6.62c0,8.23.7,16.49-.51,24.68-.65,4.46-2.15,8.66-5.94,11.55A12.09,12.09,0,0,1,315.65,276c-4.91-2.16-7.24-6.47-7.86-11.64-1.32-10.92,2.93-19.7,10.71-27,1.48-1.39,2.94-2.8,4.42-4.19a2.38,2.38,0,0,0,.87-1.69c0-4.32,0-8.64,0-13-1.35-.17-1.52.87-2,1.44A13.67,13.67,0,0,1,305,223.44c-2.11-1.07-3.05-.51-3.65,1.55a85.28,85.28,0,0,1-6.83,16.37,29.92,29.92,0,0,1-8.86,10.54,14.63,14.63,0,0,1-15.75,1.44c-5.74-2.77-7.76-7.93-8.25-13.84-.86-10.32,1.56-20.24,4-30.14A145.43,145.43,0,0,1,272.09,189c.73-1.79,0-2.41-1.69-2.42-2.13,0-4.26,0-6.39,0-2.64-.1-3.66,1.1-4,3.74-1.39,9.43-3.2,18.79-7.06,27.59-2.43,5.56-5.67,10.48-11.56,12.9a21.66,21.66,0,0,1-18.56-.54c-5-2.47-6.86-7-7.21-12.32-.5-7.67,1.81-14.82,4.11-22,.74-2.28,1.67-4.51,2.55-6.75.58-1.45.06-2.16-1.41-2.18q-4.31,0-8.61,0c-1.72,0-2,1.23-2.16,2.65a117.49,117.49,0,0,1-7.78,30.58c-5.27,12.66-13.84,17.94-27.52,16.65A18.17,18.17,0,0,1,161.58,229c-6.43-8.91-7.89-19.16-7.49-29.84a50.31,50.31,0,0,1,3-14.87,13,13,0,0,0-2-12.64c-5.57-7.39-12.37-12.3-22.24-11.83a39.43,39.43,0,0,1-21.65-5A26.56,26.56,0,0,1,99.33,141c-.73-1.87-1.3-4.14.81-5.56s4-.37,5.58,1c3.34,3.07,6.53,6.31,10.46,8.65,2.86,1.72,5.82,3.28,9.26,3.48,2.16.12,4.5.16,5.78-1.88s.15-4-.91-5.73a226.38,226.38,0,0,1-13.8-26.6c-3.09-7.14-5.9-14.39-9.09-21.48-3-6.62-6.59-12.88-12.79-17.14-1.36-.93-2.86-1.69-4.32-2.49C80.12,67.73,74.09,59.24,72.37,47.74c-.32-2.15-.36-4.54,2.22-5.36s4.17.81,5.2,3c1.87,4,3.48,8.18,6.09,11.83A10.93,10.93,0,0,0,92,61.78c2.83.77,4-.14,4.1-3.07.09-5.64-.31-11.29.55-16.91A69.58,69.58,0,0,1,98.8,31.21c1-3.08,2.93-4.69,5.28-4.14,2.12.5,3.12,2.53,2.76,5.61a116.18,116.18,0,0,0,2.21,40.8c.26,1.1.08,2.85,1.48,3,1.76.18,2-1.69,2.36-3,1.26-4.26,2.37-8.56,3.57-12.84,4.11-14.67,10.84-27.81,21.6-38.86,9.29-9.55,20.3-16.25,32.53-21.17A8.43,8.43,0,0,1,171.9.2a4.94,4.94,0,0,1,5.89,2.43c.9,2,0,4.12-2.38,5.56-3.08,1.88-6.25,3.62-9.27,5.58-9.11,5.9-18,12.11-24.23,21.28a16.42,16.42,0,0,0-2.6,5.49c-.56,2.4.38,4,2.7,4.7a19.59,19.59,0,0,0,9.35.27c11.45-2.12,21.79-7,31.7-12.94,1.5-.9,2.89-2.05,4.73-2.24s3.4-.14,4.37,1.63a3.68,3.68,0,0,1-.89,4.57,45.26,45.26,0,0,1-5.39,4.78c-9.22,6.84-19.11,12.41-30.5,14.7-4.07.82-8.28.88-12.38,1.59-12,2.09-18.79,8.51-20.27,20.75-1.58,13.05,1.3,25.08,6.09,37.05,5.68,14.2,15.11,25.77,24.86,37.17,4.57,5.36,9.25,10.61,12.14,17.14.67,1.53,1.43,2.29,3.39,1.79,12-3.1,19.85,4.19,17.86,16.59-1.7,10.58-7.89,17.76-17.48,22-2.47,1.11-3,2.64-2.74,5,.77,6.21,4.07,10.45,9.32,11.85,5.47,1.47,10.74-.54,14.6-5.59a22.25,22.25,0,0,0,3.75-7.7,129.09,129.09,0,0,0,4.53-26.77,3.71,3.71,0,0,0-2-3.9,6.16,6.16,0,0,1-1.4-.89c-2.29-2.11-3.81-4.61-3.19-7.85s3.1-4.66,6.07-5.33A10.82,10.82,0,0,1,210,173.7a4.81,4.81,0,0,0,3.75,2.46c4,.5,8,.23,11.93.26,7.45.07,11.19,5.48,8.85,12.44-3,8.77-6.11,17.51-5.72,27,.1,2.55.44,4.79,3.07,6a6.58,6.58,0,0,0,7.48-1.21,17.65,17.65,0,0,0,5.17-8.42,102.38,102.38,0,0,0,4.34-24.81,5,5,0,0,0-2.6-5.06,8,8,0,0,1-3.87-8.76c.82-2.91,4-4.89,7.88-5,4.1-.08,7.45,1.25,9.62,4.9A4.81,4.81,0,0,0,264,176a77.31,77.31,0,0,0,10,.35c1.83-.06,3.44-.51,4.49-2.24a108.16,108.16,0,0,1,20-23.64c5.94-5.45,11.63-11.2,16.18-17.88,9.18-13.46,16.1-27.74,14.21-44.75-.69-6.24-4-10.82-9.43-13.86a27.12,27.12,0,0,0-8.54-3.16c-10.94-2-20.34-7.12-28.79-14.19-3.47-2.92-7-5.81-9.54-9.61-.8-1.19-1.19-2.6.06-3.81a3.44,3.44,0,0,1,4.1-.77,24.82,24.82,0,0,1,3.67,2.47,113.55,113.55,0,0,0,20.45,12.78,31.54,31.54,0,0,0,12.84,3.18c3.94.06,5.34-1.83,4.48-5.69-.94-4.29-3.35-7.84-6-11.15a104.2,104.2,0,0,0-20-18.72c-.3-.22-.61-.42-.91-.65-2.73-2.07-3.47-4.06-2.24-6.05s3.4-2.21,6.45-.54Q330,37,336.72,76c.76,4.37.67,8.87,1.81,13.19.24.93.22,2.27,1.49,2.38s1.5-1.18,1.85-2.1a99.55,99.55,0,0,0,6.47-34.18c0-1,0-2,.07-3.05a3.36,3.36,0,0,1,3-3.45c2-.27,3.15.95,3.7,2.67,1.53,4.74,1.5,9.67,1.32,14.55a62.87,62.87,0,0,1-1.21,11.58c-.6,2.6.58,3.59,3.28,3.24,3.09-.4,5.11-2.54,6.89-4.78a33.48,33.48,0,0,0,4.24-6.5,15.26,15.26,0,0,1,1.74-2.83c1.1-1.43,2.51-2.29,4.35-1.48s2,2.32,1.79,4a23.83,23.83,0,0,1-5.24,12.37A32.06,32.06,0,0,1,357.55,92c-6.17,2.08-10.45,6.59-14,11.75-5.61,8.17-10.08,17-15.15,25.54-3.67,6.14-8.07,11.73-12.32,17.45-1.35,1.81-3,3.72-1.78,6s4,2.19,6.24,1.85a30.45,30.45,0,0,0,14.62-6.95,12.06,12.06,0,0,1,4.59-2.5c2.61-.68,4.4.89,4.09,3.58A9.33,9.33,0,0,1,342,153a25.62,25.62,0,0,1-21.51,11.25,53.35,53.35,0,0,1-11.08-.48c-7.52-1.46-12.69,2.22-16.67,8a73.69,73.69,0,0,0-8.58,17.36c-4.51,12.55-9.12,25.06-11,38.35a68,68,0,0,0-.21,12.76,8.28,8.28,0,0,0,.6,2.41c1.36,3.75,4.33,4.28,6.92,1.24,4.86-5.73,7.68-12.55,10.76-19.31,4.56-10,5.44-20.65,6.59-31.32a106.35,106.35,0,0,1,4-19.56,6.87,6.87,0,0,1,9.6-4.12c2.09,1,2.05,2.73,1.39,4.73a92.14,92.14,0,0,0-4.93,30.26c0,2.59.17,5.21,1.42,7.57,1.8,3.41,4.62,4,7.5,1.54a14.49,14.49,0,0,0,3.95-5.29A37.38,37.38,0,0,0,324,191.93c-.3-6.47-.12-13-.14-19.44,0-2.94.86-3.83,3.76-3.89,4.7-.08,7.43,2.54,7.44,7.28q0,20.15,0,40.28v3.28ZM165.63,197.5c0,1.18,0,1.92,0,2.66.09,1.58.88,1.87,2.23,1.18,4.48-2.3,9.24-12.71,8.06-17.66-.68-2.84-3-3.55-5.19-1.53a11.29,11.29,0,0,0-2.33,3.41C166.51,189.47,166,193.69,165.63,197.5Zm158.24,57.36h0c0-2.68,0-5.35,0-8a1.71,1.71,0,0,0-.47-1.2c-.45-.36-.85.09-1.12.46a23.19,23.19,0,0,0-4,19.15,2.36,2.36,0,0,0,2.24,2.12,2.79,2.79,0,0,0,2.54-1.83,6.74,6.74,0,0,0,.79-3.2C323.89,259.84,323.87,257.35,323.87,254.86Z"/><path class="cls-3" d="M80.73,288.5c2-2.89,3.7-5.95,6.36-8.31A12.08,12.08,0,0,1,99,277.53c4.32,1.19,6.05,4.51,6.82,8.6a28,28,0,0,1,.41,5.25c0,8.79,0,17.59,0,26.38a19.05,19.05,0,0,0,.43,4.13c.72,3.08,2.83,3.74,5.3,1.67s3.48-4.79,4.35-7.62A93.3,93.3,0,0,0,120.05,288a4.39,4.39,0,0,0-1.92-4.06,7.93,7.93,0,0,1-2.49-2.93,7.35,7.35,0,0,1,.59-8.8,8.23,8.23,0,0,1,8.74-1.74c1.73.75,3.44,1.76,4.2,3.48,1.21,2.72,3.26,3.21,5.87,3.06,2.21-.12,4.46.14,6.66-.1,3.62-.39,6,1.45,8,4a5.84,5.84,0,0,1,.82,5.52c-2.08,7.49-4.46,14.92-5.18,22.71a57.69,57.69,0,0,0-.25,7.2c.08,2.29.64,4.42,3.29,5.22s4.58-.37,6.09-2.26a23.74,23.74,0,0,0,4.89-14.23c.32-8.5.42-17-.11-25.53a2.94,2.94,0,0,1,2.13-3.41,6.9,6.9,0,0,1,9.26,6.42c0,10.09,0,20.19,0,30.28a35.86,35.86,0,0,0,.45,5c.26,1.73,1.2,3,3.08,3s2.92-1.44,2.95-3.36c.06-2.77.91-5.08,3.49-6.49a3.34,3.34,0,0,0,1.49-2.56c1.35-7,3.86-13.71,6.18-20.44a5.41,5.41,0,0,0,.07-4.32c-2.77-5.7-.17-9.65,5.38-13.42,2.55-1.74,5.44-3.12,8.51-1,2.26,1.59,3.14,5.14,1.21,8.92-2.34,4.54-1.45,8,1.76,11.47,1.31,1.42,2.28,3.14,3.53,4.63,4.56,5.46,7.18,11.61,6.8,18.84-.11,2.28.63,2.88,2.74,1.75,4.78-2.59,7.61-6.45,7.68-12,.1-8.51,0-17,.08-25.55,0-2.8-1-3.85-3.73-3.69a46.51,46.51,0,0,1-5-.36c-2.43-.13-3.86-1.56-4.89-3.57-.74-1.47-1.19-3-.28-4.51s2.66-1.59,4.23-1.35a49.57,49.57,0,0,0,7.2.31c1.61,0,2.44-.77,2.37-2.37-.3-7.83.9-15.72-.81-23.51-.42-1.9.43-2.72,2.28-2.94,6.41-.77,9.72,2.09,9.72,8.49,0,5.83.07,11.67,0,17.5,0,2.28,1,3.14,3.13,3.24A215.49,215.49,0,0,0,263,264c2.31-.13,3.22.85,3,2.85-.81,6.17-1.28,7.62-7.48,7.41-5.82-.2-11.65.19-17.48-.4-3.15-.32-3.77.4-3.81,3.53-.16,11.84-.32,23.69-.42,35.53a24.88,24.88,0,0,0,.52,5.23c.75,3.58,4.22,4.58,7,2.1a15.44,15.44,0,0,0,4-6.9A31.21,31.21,0,0,0,250.07,303c-.09-7.69,0-15.37-.11-23.05,0-1.76.33-3.06,2.24-3.61a7.24,7.24,0,0,1,9,5.68c.11.76-.32,2,.72,2.14s1.27-1,1.67-1.65A15.77,15.77,0,0,1,269,277a10.78,10.78,0,0,1,16.19,6c.27.81.14,2.1,1.31,2.17.91.06,1.17-1.07,1.63-1.73,4.55-6.42,8.28-8.16,14.41-6.73a9.33,9.33,0,0,1,7.14,6.66c1.56,4.93,1.67,10,1.36,15.13a167.39,167.39,0,0,0,.1,24.12c.16,1.88.59,3.57,2.65,4.09,1.9.49,3.14-.72,4.23-2a12.41,12.41,0,0,0,2.61-8.27c0-9.88,2.19-19.11,8.67-26.91,5.91-7.12,13.45-10.89,22.78-10.57,4.81.17,7.08,2.52,7.33,7,.15,2.56-.92,3.86-3.4,3.45-13-2.21-21.62,8.7-23.57,20.25-.79,4.74-1.29,9.55.17,14.32,1.05,3.42,3.87,5.86,6.93,5.77,2.66-.07,5.29-2.63,6-6a20,20,0,0,0,.5-4.68c-.25-7.38.75-14.79-.59-22.16-.36-2,1-3,3-3.25a7.43,7.43,0,0,1,8.38,7.2c.07,7.68,0,15.37,0,23a16.56,16.56,0,0,0,.56,5c.53,1.76,1.33,3.34,3.36,3.63a4.48,4.48,0,0,0,4.66-2.39,19.45,19.45,0,0,0,2.86-6.28c.36-1.82.84-3.6,1.21-5.42.41-2,.65-4.19,3.25-4.56,1.82-.25,4.26,1.94,5,4.25a4.28,4.28,0,0,1,.12.54c1.38,6.69-4.94,20.13-11,23.32a13.75,13.75,0,0,1-15.85-2.69c-1.89-2-3.19-2.54-5.71-.75-5.21,3.68-14.31,1.6-18.79-3.89-2.22-2.72-2.22-2.72-4.89-.42a13.06,13.06,0,0,1-19.79-3.78,20.3,20.3,0,0,1-2-9.92c.13-10.25.41-20.52-.29-30.76-.08-1.21-.29-2.51-1.63-3s-2.31.52-3.08,1.41c-5,5.86-8.3,12.51-8.54,20.32-.2,6.76,0,13.52-.06,20.28,0,4-.94,5.32-3.59,5.47-3.6.2-7-2.19-7.42-5.27a28.82,28.82,0,0,1-.13-3.6c0-10.84,0-21.67-.05-32.5a26.14,26.14,0,0,0-.53-5.23c-.45-2.17-1.84-2.64-3.69-1.38a14.44,14.44,0,0,0-3.87,4.66c-3.89,6.19-6.11,12.77-5.76,20.21.25,5.27.07,10.56.05,15.83,0,1.74.35,3.84-1.57,4.7a7,7,0,0,1-6.66-.54,5.5,5.5,0,0,1-1.78-1.71c-1-1.65-2-1.4-3.37-.41a15.11,15.11,0,0,1-17.6-.74,10.76,10.76,0,0,1-3.12-4.84c-.55-1.56-1.5-1.93-3-1.16a28,28,0,0,1-11.94,3.32,6,6,0,0,0-3.13,1c-7.82,5.49-15.88,4.59-24,.94a4,4,0,0,0-4.33.37c-7,4.54-12.37,4.14-18.52-1.4-1.29-1.16-1.92-.4-2.77.34-2.75,2.4-5.66,4.32-9.47,4.84-9.14,1.26-15.68-3.95-15.91-13.21-.22-8.41,1.49-16.56,4.06-24.53,2.13-6.61,2.15-6.6-4.66-6.36-3.58.13-3.66.29-3.85,3.83-.62,11.35-2.29,22.47-7.73,32.69a23.44,23.44,0,0,1-7.9,8.77c-3.42,2.25-7.15,2.44-11,1.82-4-.66-6.69-3.92-7.34-8.66a51.71,51.71,0,0,1-.5-6.92c-.06-8.42,0-16.85,0-25.27,0-.84,0-1.67,0-2.5-.1-1.39-.12-2.95-1.73-3.48s-2.69.53-3.6,1.58A37.28,37.28,0,0,0,84,298.22c-2.42,5.24-4.15,10.65-4,16.58.2,6.29.13,12.59,0,18.89-.06,4.16-2.14,5.92-6.21,5.53A4.32,4.32,0,0,1,69.49,335a38.67,38.67,0,0,1-.11-3.88q0-40.83,0-81.67a19.84,19.84,0,0,0-.93-7.11c-.69-1.85.21-2.59,1.78-3,5.87-1.49,9.87,1.6,9.87,7.64q0,18.75,0,37.5v3.83Zm124.73,22.22a23.05,23.05,0,0,0-6.54-15.06c-2-2.26-2.74-2.18-3.71.65-1.74,5.06-3.27,10.19-4.89,15.29a2.67,2.67,0,0,0,1.57,3.64c1.85.83,3.73,1.63,5.64,2.3,5,1.76,6.58.79,7.56-4.53C205.26,312.11,205.38,311.2,205.46,310.72Z"/><path class="cls-4" d="M112.81,219.55q0-18.48,0-37a15.83,15.83,0,0,0-1-6,4.94,4.94,0,0,0-8.69-1.22,10.86,10.86,0,0,0-2,7.06c0,10.93,0,21.85,0,32.77q-.13,16.91-.52,33.81A18.19,18.19,0,0,1,98,257.75a9.77,9.77,0,0,1-11,4.45,6,6,0,0,1-4.31-4.3c-.61-1.88,0-3.22,2-3.47,2.58-.33,3.6-2.07,4.17-4.22a18.16,18.16,0,0,0,.68-4.37c.08-8.23-.22-16.47.16-24.68.63-13.61,0-27.22.48-40.82.36-9.54,6.2-16.38,14.75-17.51a16.79,16.79,0,0,1,12.31,3.31c1.32,1,2.35,1.3,3.57-.08,4.77-5.44,18.28-4.94,23.51,4.34a23.34,23.34,0,0,1,3.13,11.66q0,30.41,0,60.79a19.27,19.27,0,0,0,1.75,8.63,7.67,7.67,0,0,0,3.17,3.38c1.86,1.08,1.94,2.48.55,4.12a8.69,8.69,0,0,1-14.4-1.47,21.13,21.13,0,0,1-2.28-9.92q0-31.67,0-63.33a29.12,29.12,0,0,0-.83-7.15,4.93,4.93,0,0,0-9-1.5,11,11,0,0,0-1.86,6.57c0,4.54,0,9.08,0,13.61q-.19,28.88-.41,57.76a9.8,9.8,0,0,0,.22,3.57c1.12,2.79-.54,3.68-2.61,4.44a10.11,10.11,0,0,1-1.33.38c-6.41,1.47-7.51.59-7.5-6V219.55Z"/><path class="cls-5" d="M11.68,303.6c0,7.83.78,15.5,4,22.79,3.42,7.82,10,12.08,17.1,11,6.31-.94,11.41-4.15,15.83-8.56,1.51-1.49,2.83-3.17,4.22-4.78,2.36-2.74,5.28-2.5,6.89.71,1.2,2.38,1.92,5,.06,7.35C53,340.43,45,347.18,34.43,349.67c-15.7,3.68-25.61-3.56-30.38-18.15s-4.83-29.66-2.7-44.75a114.68,114.68,0,0,1,14-41.58c4.18-7.28,9.69-13.63,17.23-17.67a24,24,0,0,1,19.13-1.69c5.15,1.64,7.88,5.67,9.48,10.51,4.94,14.91,1.33,28.17-8.5,39.84-6,7.07-13.47,12.1-22.82,13.83-2.43.46-4.92.67-6.61-1.58-2-2.65-1.88-5.72-1.08-8.76a1.93,1.93,0,0,1,2.4-1.43c7.58,1.71,12.72-2.82,17.73-7.19,7.34-6.41,9.88-15,9.91-24.42,0-8.81-8-13.1-15.66-8.58-5.29,3.12-8.87,7.81-11.79,13a99.42,99.42,0,0,0-10,27A123.72,123.72,0,0,0,11.68,303.6Z"/><path class="cls-6" d="M405.58,253.23c.3-5.33-.22-10.41-4.05-14.36-5.17-5.33-11.8-5.8-18.57-4.72S372.39,239.83,370.3,246c-2.65,7.89-1.11,15.34,2.61,22.51,6.14,11.83,14.72,21.9,23.16,32.09C401,306.58,406.63,312,409,319.81c2.42,8.08,1.87,15.76-2.49,23-3.33,5.52-8.45,7.8-14.86,7.07-6.07-.69-11.56-2.48-15.23-7.86-1.93-2.85-.4-9.2,2.69-10.7,1.66-.8,2.79,0,3.76,1.32a10.71,10.71,0,0,0,5.32,4.25c5.43,1.78,10.16-1.27,10.71-7,.54-5.51-1.77-10.13-4.67-14.49-5.65-8.5-12.85-15.76-19.22-23.68-6.82-8.48-13.24-17.23-16-28-3.55-13.93.39-31.37,14.74-38.37,15.57-7.59,36.73-1,41.46,19,2.63,11.1,1.74,21.9-4.26,31.86-3.48,5.76-8.43,9.27-15.56,8.66a8.55,8.55,0,0,1-7.39-6.2c-.49-2.33.43-3.57,2.7-3.18,4.53.76,7.46-1.69,9.86-4.88A25.07,25.07,0,0,0,405.58,253.23Z"/><path class="cls-7" d="M62.27,137.59c-.07-2.81.71-6-3.18-7.07-.26-.07-.6-.39-.74-.31-2.18,1.23-4.75,2.12-6.36,3.89s0,4.81,2.38,6.19c1.43.85,2.91,1.62,4.36,2.44,1.29.73,2.85,1.38,1.85,3.34s-2.32,1.43-3.75.61c-.89-.5-1.79-1-2.71-1.41-.68-.33-1.49-.61-2,.15a1.52,1.52,0,0,0,.59,2.17c.82.59,1.75,1,2.63,1.54s2,1.24,1.39,2.62c-.45,1.1-1.21,2-2.52,1.7-2.23-.54-2.56.68-2.52,2.42,0,1.57-.44,2.74-2.29,2.81s-2.63-1.1-2.63-2.79-.44-2.64-2.42-2.31c-1.28.21-2-.68-2.41-1.86s.26-2.1,1.34-2.7a30,30,0,0,0,2.64-1.51,1.34,1.34,0,0,0,.45-1.94c-.5-.73-1.16-.25-1.72.05-1.07.55-2.09,1.21-3.19,1.68a2.31,2.31,0,0,1-3.25-1.2c-.74-1.41,0-2.26,1.12-2.95,1.83-1.09,3.61-2.27,5.5-3.25,2.48-1.29,2.5-3.43,2.24-5.73-.05-.49-.31-1-.77-1-2,.1-3.4-1-4.89-2.17-1.22-1-4.49,1.57-4.64,3.63s-.07,4.44-.13,6.66c0,1.48-.32,2.85-2.22,2.9s-2.5-1.29-2.63-2.9c-.09-1.11,0-2.22-.09-3.33,0-.55,0-1.23-.7-1.33a1.19,1.19,0,0,0-1.33,1.14c-.17,1.09-.18,2.21-.27,3.31-.1,1.29-.47,2.42-2,2.6-1.28.15-2.48,0-2.85-1.55-.49-2-1.59-1.25-2.68-.64-1.49.85-2.93,1.35-4-.56s.21-2.88,1.68-3.66,2.36-1.59.6-3a1.69,1.69,0,0,1-.37-2.27,2.13,2.13,0,0,1,2.65-1c1.32.39,2.57,1,3.9,1.42.81.24,1.79.21,2.12-.77s-.5-1.34-1.14-1.69c-1-.52-2.05-.88-3-1.44s-2-1.21-1.41-2.61a2.47,2.47,0,0,1,3.19-1.49c1.65.45,2.91,1.59,4.33,2.46,2,1.24,4.06,1.74,6.26.42,1.36-.81,3.48-1.2,1.15-3.37-.81-.75-.44-2,.37-2.77,1.43-1.32.63-2-.6-2.68a5.53,5.53,0,0,0-5.81-.06c-1.68,1-3.35,2-5.06,2.89-1.35.72-2.61.85-3.56-.77s-.15-2.59,1.18-3.38c1.11-.67,2.23-1.32,3.33-2,.46-.29,1-.63.66-1.31a1.17,1.17,0,0,0-1.46-.51c-1.12.4-2.22.91-3.3,1.42-1.26.6-2.48,1-3.44-.45a2,2,0,0,1,.69-3.27c1.21-.72,1-1.4-.14-2-.65-.35-1.32-.68-2-1.06-1-.6-1.51-1.4-.89-2.55s1.35-1.81,2.67-1.39a10.43,10.43,0,0,1,1.77.8c1.25.68,2.3.9,2.65-.94.29-1.49,1.32-1.91,2.67-1.78,1.6.16,1.82,1.33,1.87,2.61,0,1,0,2,.16,3.05a1.49,1.49,0,0,0,1.44,1.44c1.05,0,1.05-.89,1.09-1.61.06-1.29.05-2.59.06-3.89,0-1.46.64-2.25,2.18-2.22a2,2,0,0,1,2.26,2.22c.05,2.12.12,4.26,0,6.38-.11,2.44,1.21,3.76,3.25,4.62.09,0,.2.13.25.11,2.29-1.13,5-1.85,6.75-3.53,1.45-1.37-.11-4.75-2.28-6.07-1.74-1-3.52-2-5.3-3-1.09-.61-1.84-1.4-1.2-2.67s1.61-2.07,3.15-1.3c1.15.58,2.29,1.2,3.47,1.74.72.32,1.6,1,2.16-.15a1.64,1.64,0,0,0-.76-2.15,27.09,27.09,0,0,0-2.37-1.43c-.88-.48-2.12-.74-1.78-2.09s1.27-2.3,2.61-2c2.44.54,2.67-.76,2.61-2.58-.05-1.55.35-2.8,2.25-2.79s2.32,1.18,2.27,2.78.16,3,2.48,2.23c1.27-.43,2.09.51,2.62,1.55.63,1.25,0,2.12-1.06,2.79S53.91,97.27,53,97.92a1.24,1.24,0,0,0-.47,1.71c.46.74,1.11.42,1.7.1,1.15-.6,2.28-1.25,3.46-1.77a2.32,2.32,0,0,1,2,4.15c-1.92,1.13-3.8,2.31-5.76,3.36s-2.33,2.41-2.23,4.36,1.46,2.1,2.78,2.55a8.07,8.07,0,0,1,1.94,1,3.64,3.64,0,0,0,5.74-2.78c.19-2.39.32-4.8.31-7.2,0-1.65.71-2.47,2.3-2.41a2.19,2.19,0,0,1,2.27,2.57c0,1.19-.22,2.39-.24,3.58,0,.64.17,1.39,1,1.5.94.12,1.35-.63,1.46-1.36a30.51,30.51,0,0,0,.22-3.32c0-1.2.31-2.26,1.71-2.47s2.72-.17,3.12,1.49,1.32,1.45,2.46.86a7.88,7.88,0,0,1,1.54-.62,2.34,2.34,0,0,1,2.89,1.55c.56,1.16-.06,2-1,2.56-1.5,1-3.78,1.61-1.15,3.89.67.57.24,1.58-.26,2.3a1.91,1.91,0,0,1-2.44.76c-1.21-.47-2.36-1.07-3.58-1.5a1.64,1.64,0,0,0-2.19.67c-.41.91.5,1.29,1.09,1.67.93.59,1.92,1.11,2.89,1.65s1.79,1.41,1.2,2.7a2.1,2.1,0,0,1-3,1.1,43.92,43.92,0,0,1-5.68-2.89c-2.59-1.67-4.35,0-6.23,1.26-.65.44-.52,1.12-.19,1.75a3.85,3.85,0,0,1,.33,2.69c-.22,1-1.94,1.91-.14,3s3.44,2.26,5.62.88c1.87-1.19,3.83-2.24,5.75-3.36,1.27-.73,2.43-.92,3.33.57s.37,2.64-1,3.5c-.93.6-1.91,1.13-2.84,1.74-.58.39-1.51.77-1,1.67s1.32.52,2,.24a26.14,26.14,0,0,0,2.51-1.19c1.44-.77,2.66-.65,3.61.77s.27,2.18-.89,3c-1.49,1-.48,1.62.45,2.21,1.27.82,3.76.93,2.69,3.32s-2.9,1.66-4.67.61c-1.12-.67-2-.21-2.37,1a2.37,2.37,0,0,1-3,1.71c-1.56-.32-1.45-1.64-1.64-2.84-.23-1.4.8-3.89-1.39-3.83s-1,2.53-1.27,4c-.11.54,0,1.11-.13,1.65-.26,1.35-1.22,1.75-2.46,1.71a1.77,1.77,0,0,1-1.89-1.94C62.24,140.36,62.27,139,62.27,137.59ZM49,128c3,0,5.9-2.56,6-5.38a5.55,5.55,0,0,0-5.47-5.46,6,6,0,0,0-5.46,5.6A5.16,5.16,0,0,0,49,128Z"/><path class="cls-8" d="M366.16,158.58c.2,2.55-.8,5.3,2.14,6.82,1.24.64,2.36,1.21,3.24-.49a2.41,2.41,0,0,1,1.81-1.18c1.24-.23,2.71-.07,2.76-2s.2-3.73-1.82-4.86c-1.86-1-3.65-2.17-5.5-3.24-1.06-.62-1.85-1.36-1.11-2.67s1.77-1.95,3.23-1.2c1,.5,1.87,1.19,2.84,1.72.67.37,1.48,1.22,2.13.14a1.7,1.7,0,0,0-.63-2.22c-.72-.56-1.58-1-2.36-1.45s-1.79-1.12-1.47-2.38a2.17,2.17,0,0,1,2.41-1.86c2.17.29,2.87-.54,2.56-2.64a1.93,1.93,0,0,1,2-2.42c1.52-.09,2.65.47,2.65,2.1,0,1.92.48,3,2.72,2.68,1.11-.13,1.65,1,2,2a1.9,1.9,0,0,1-1.05,2.31c-1,.64-2.06,1.25-3,1.94a1.08,1.08,0,0,0-.43,1.46c.34.6.92.56,1.46.3,1.07-.54,2.14-1.09,3.19-1.68a2.41,2.41,0,0,1,3.58.92c1,1.53-.11,2.46-1.22,3.18-1.86,1.2-3.78,2.31-5.72,3.4-1.54.87-1.77,2.18-1.6,3.79s.84,2.56,2.57,2.65a2.64,2.64,0,0,1,1.24.57c.85.58,1,2.37,2.77,1.28s3.75-1.79,3.58-4.4c-.12-1.75-.21-3.51-.22-5.26,0-1.54.18-3.14,2.21-3.23s2.46,1.29,2.51,2.95c0,.83,0,1.67.05,2.5s-.07,1.69.92,1.74,1.18-1,1.26-1.8.05-1.67.12-2.5c.09-1.19.48-2.19,1.85-2.4s2.46.07,2.85,1.52c.44,1.65,1.39,1.43,2.52.83,1.53-.8,3.09-1.21,4,.73s-.52,2.73-1.86,3.44-2.28,1.37-.34,2.59c1,.6.75,1.61.2,2.47a2.14,2.14,0,0,1-2.65.94c-1.23-.4-2.4-1-3.63-1.35-.7-.2-1.6-.19-1.92.66s.49,1.09,1,1.42c1.11.69,2.25,1.3,3.33,2a2,2,0,0,1-1.87,3.61c-1.68-.77-3.3-1.67-4.92-2.57-1.78-1-3.53-1.54-5.48-.35-1.34.8-2.22,1.61-1.37,3.32a2.68,2.68,0,0,1,.12,1.87c-.43,1.16-1.55,2.15.22,3.25s3.17,1.86,5.1.62c1.71-1.09,3.51-2.05,5.28-3.05,1.37-.77,2.62-.94,3.54.7s0,2.57-1.33,3.36c-.94.58-1.91,1.13-2.84,1.74-.44.29-1,.65-.73,1.3a1.25,1.25,0,0,0,1.69.56c1.1-.46,2.14-1.09,3.23-1.59a2.45,2.45,0,0,1,3.17.94c.9,1.16.44,2-.61,2.79-1.64,1.21-.42,1.82.58,2.36,1.32.73,2.94,1.36,2,3.27s-2.53,1.4-4,.61c-1.26-.66-2.28-.88-2.54,1-.21,1.51-1.44,1.5-2.58,1.44a2,2,0,0,1-2.07-2.14c-.05-.92,0-1.85-.11-2.77s-.25-1.84-1.32-1.77-.79,1.07-.86,1.77c-.12,1.19-.2,2.39-.35,3.58a1.94,1.94,0,0,1-2.28,1.88c-1.46-.06-1.86-1-1.88-2.25,0-2-.11-4.07,0-6.11.1-2.66-1.64-3.73-3.71-4.56-.55-.22-1.22-.29-1.5.27-.82,1.61-2.26,1.93-3.83,2.36-1.84.49-1.92,3.94-.16,5.67a24.41,24.41,0,0,0,5.59,3.58c1.39.77,3.09,1.43,1.82,3.51-1.16,1.91-2.55,1.08-4.05.32-1.26-.64-2.92-2.69-4-.81s1.59,2.19,2.73,3.07c.85.67,2.11,1.14,1.71,2.53a2.51,2.51,0,0,1-2.52,1.84c-1.76,0-2.5.9-2.51,2.59,0,1.54-.74,2.45-2.38,2.41s-2.14-1-2.1-2.38c.06-1.92-.84-2.62-2.68-2.63a2.38,2.38,0,0,1-2.36-2c-.26-1.23.77-1.76,1.61-2.33,1.25-.85,3.67-1.53,2.85-3.08-.72-1.36-2.49.53-3.75,1-1.51.6-3,1.47-4.14-.4-1.21-2,.34-3,1.83-3.92s3-1.87,4.57-2.63c2.43-1.15,2.11-3.21,1.9-5.25-.08-.88-.72-1.22-1.54-1.31a3.21,3.21,0,0,1-2.29-.86c-.89-1.09-1.66-1.84-3.21-.92s-2.85,1.71-2.78,3.74a41.3,41.3,0,0,1-.05,4.72c-.12,1.69.76,4.16-2.15,4.23s-2.2-2.35-2.34-4.09c-.05-.55,0-1.11-.05-1.66s0-1.68-1-1.69c-.83,0-1.27.77-1.41,1.5a19.37,19.37,0,0,0-.23,2.75c-.06,1.27-.21,2.47-1.8,2.69-1.36.19-2.38-.24-2.68-1.73s-1.13-1.2-2.09-.76a11.13,11.13,0,0,1-1.79.75,2.23,2.23,0,0,1-2.81-1.18,1.94,1.94,0,0,1,.83-2.85c1.72-1,3.75-1.71,1-3.9-.64-.51-.15-1.39.34-2a2.24,2.24,0,0,1,2.73-.73c1.39.48,2.63,1.43,4.2,1.31.55,0,1.19-.08,1.35-.73s-.36-.82-.75-1.06c-1.19-.71-2.41-1.38-3.6-2.08s-1.75-1.41-1.06-2.72a2.08,2.08,0,0,1,3-1.11,57.25,57.25,0,0,1,5.65,3c2.47,1.57,4.2-.08,6.06-1.18.69-.4.42-1.13.1-1.74a3.43,3.43,0,0,1-.29-2.69c.36-1.12,1.19-2.24-.45-3.06-1.47-.73-2.82-1.82-4.62-.64s-3.5,2.09-5.29,3c-1.48.8-3.05,1.24-4.1-.61s.35-2.7,1.62-3.52c.77-.51,1.62-.89,2.41-1.37.55-.33,1.27-.69.93-1.47s-1.21-.71-1.92-.41c-1,.43-2,.95-3,1.4a2.14,2.14,0,0,1-2.93-.73,1.9,1.9,0,0,1,.36-2.74c1.69-1.49.51-2.08-.75-2.77-1.08-.59-2.71-1-1.85-2.79S350,155,351.69,156c1.44.87,2.52.92,3-1.12.34-1.34,1.62-1.35,2.76-1.2s1.6,1.11,1.59,2.23a7.51,7.51,0,0,0,.33,3.55c.29.6.7,1.19,1.47,1s.73-.78.75-1.35c.05-1.2.06-2.4.06-3.61a2.33,2.33,0,0,1,2.56-2.61c1.65,0,1.88,1.23,1.9,2.51C366.18,156.52,366.16,157.64,366.16,158.58Zm11.76,20.08c3.4,0,5.66-2,5.77-5.08a5,5,0,0,0-5.25-4.9,5.15,5.15,0,0,0-5.06,5.16A4.43,4.43,0,0,0,377.92,178.66Z"/><path class="cls-9" d="M44.87,203.77c-.77.45-.74,1.16-.88,1.77-.23.94-1.25,1.86-1.66,1.23-1.49-2.23-4.91.85-5.8-2.31-.19-.72.35-1.2.87-1.62s1.12-.74.89-1.55c-.86-2.88.68-2.78,2.66-2.15.75.24,1.78,1,2.19,0s-.94-1.12-1.57-1.55c-.85-.59-1.91-1.13-1.22-2.37s1.61-.51,2.45-.2a18.57,18.57,0,0,1,2.06.85c1.35.7,2.75,1.39,4.15.32s.55-2.8.65-4.16c.11-1.57-1.48-1.77-2.69-1.4a25.93,25.93,0,0,0-3.77,1.7c-1,.51-2.1,1.13-3-.11s.2-2,1.07-2.71c.49-.38,1-.73,1.55-1.13-.83-1-1.4-.1-2,0-1.82.37-3.37.38-2.54-2.2.34-1.07-.31-1.52-.87-2.12a1.54,1.54,0,0,1-.49-1.75c.37-.85,1.13-.84,1.9-.75a2.63,2.63,0,0,0,1.87-.06c2.87-1.68,2.88-1.67,3.78,1.61.09.35.15.73.67.79.75-.7.29-1.73.62-2.56s.6-1.4,1.5-1.4,1.48.72,1.57,1.61c.12,1.28.1,2.58.15,3.88s.67,2.3,1.9,2.35a5,5,0,0,0,4.38-2.36,2.16,2.16,0,0,0-.86-2.93c-1.06-.73-2.25-1.27-3.37-1.92-.81-.48-1.72-1-1.13-2.16s1.51-.93,2.43-.59c.52.19,1,.51,1.49.74s.93.49,1.26,0-.09-1-.54-1.37-.94-.59-1.38-.92-1-1.16-.6-1.37c1.89-1.1,2.8-3.11,4.43-4.4.46-.36,5.07,4.28,4.93,4.92-.29,1.33-1.82,1.49-2.52,2.68,1,.71,1.72-.13,2.49-.32,1-.25,2.12-.44,2.68.71s-.45,1.67-1.21,2.17a30.1,30.1,0,0,1-2.63,1.54c-1.43.73-2.26,1.87-1.58,3.37a4.09,4.09,0,0,0,3.9,2.13c1.41,0,2.27-1.14,2.36-2.62.07-1.11,0-2.23.09-3.33.06-.93.07-2,1.27-2.18s1.64.93,1.92,1.93c.16.61.25,1.24.41,2,1.57-.86.85-5,3.22-3.17,1.73,1.34,5.16-1.07,5,2.24a11.81,11.81,0,0,1-1.4,4.82c-1.09,1.88-3.14-.49-4.79.06.1,1.42,1.25,1.43,1.94,1.92s1.48,1,1,2-1.45,1-2.38.65c-1.12-.46-2.17-1.08-3.3-1.44-1.28-.41-3-.57-3.41.82s-.81,3.19.28,4.47,2.32.65,3.51-.09a17,17,0,0,1,2.75-1.33c.91-.35,1.9-.4,2.45.59s-.22,1.69-1,2.29c-.56.46-1.34.66-1.66,1.46.73.7,1.34,0,2-.16,2.41-.71,3.11-.15,2.42,2.25-.29,1,.24,1.33.79,1.78s1.21,1,.78,1.85a1.82,1.82,0,0,1-2.1,1c-.53-.08-1.32-.41-1.56-.18-3.55,3.38-3.44.11-3.95-2.11,0-.14-.24-.24-.42-.4-1.09.61-.77,1.74-1,2.67s-.36,1.73-1.47,1.65-1.34-.89-1.4-1.78c-.08-1.11,0-2.22-.12-3.33-.14-1.45-.66-3.08-2.26-3a4.74,4.74,0,0,0-4,2.46c-.68,1.43.13,2.68,1.49,3.47,1,.55,2,1.05,2.89,1.66a1.55,1.55,0,0,1,.63,2.16c-.45.87-1.19.69-1.93.43-.92-.32-1.8-.93-2.77-.65-.28.57-.13.93.19,1.13,2.22,1.41,3.14,2.79,0,4.24a1.81,1.81,0,0,0-.55.61c-2.09,2.86-2.08,2.86-3.75-.14a2.21,2.21,0,0,0-.47-.66c-2.6-2.21-2.6-2.2-.22-4.5a1.78,1.78,0,0,0,.21-.56c-1-.47-1.71.33-2.5.64a1.72,1.72,0,0,1-2.41-.65c-.57-1,.08-1.77.89-2.32s1.87-1.2,2.85-1.73c1.27-.68,2.22-1.69,1.63-3.11a4.35,4.35,0,0,0-3.77-2.34c-1.34-.13-2.29,1.11-2.5,2.53-.15,1-.08,2-.14,3s.14,2.46-1.38,2.63c-1.68.19-1.84-1.16-2-2.41C45.54,204.53,45.56,204,44.87,203.77Zm9.06-10.24c.09,1.9,1.08,3.14,2.85,3.2a3.3,3.3,0,0,0,3.64-3.07c.18-1.95-1.07-3.14-3-3.23S54.21,191.55,53.93,193.53Z"/><path class="cls-10" d="M167.5,246.44a8.19,8.19,0,0,1,8.42,8.67,8.07,8.07,0,0,1-8.45,8.05c-5.18,0-8.75-3.64-8.61-8.72S162.31,246.35,167.5,246.44Z"/></g><text class="cls-11" transform="translate(113.74 379.74)">from Arnhoudt</text></g></g></svg>