<svg xmlns="http://www.w3.org/2000/svg" viewBox="0 0 2370.06 1162.7"><defs><style>.cls-1{fill:#fff;}</style></defs><title>sled</title><g id="Layer_2" data-name="Layer 2"><g id="Layer_1-2" data-name="Layer 1"><g id="LCEmCf.tif"><path class="cls-1" d="M2347.94,286.79c-7.73,2.09-15.44,4.2-23.45,4.87-4.52.38-7.52-1.79-7-6.27,1.79-14.74-3.68-27.69-10.1-40.12-8.94-17.31-7.66-34.58-2.35-52.4,3.81-12.79,11-21.76,24.34-25.29,5.44-1.44,10.91-3.27,15.65-6.46,8.72-5.88,9.07-17.3.89-22.61-2.64-1.72-5.65-2-8.61-2.24a60.89,60.89,0,0,1-26.44-8.34c-5.51-3.24-11.57-4.86-17.91-5.92-9.58-1.61-18.51,1.14-27.57,3.19-11.67,2.65-16.52.26-20.71-11a79.68,79.68,0,0,1-3-11.58c-.86-4.11-1.43-8.28-2.11-12.37-1.85.26-2,1.28-2.31,2.17-2.91,7.45-4.41,8.24-11.69,5.11a87.54,87.54,0,0,1-20.66-12.08c-8.41-6.82-12-15.69-9.4-26.67,2.34-10,7.34-18.48,14-26.17,2.17-2.5,5.12-4.61,6.62-9-6.91,2.84-10.81,7.58-15.6,11.1-1.35,1-2.89,1.75-4.61.78a3.81,3.81,0,0,1-1.73-4.32c.45-2.61,1.19-5.18,1.89-7.75,2.26-8.32,7.11-15.52,10.4-23.45-7,7.25-11.77,15.85-15.38,25.11-4.34,11.15-14.11,18.41-20.21,28.33-1.92,3.12-5.6,1.65-6.37-2.2s.15-7.28,1.26-10.81c1.76-5.59,3.5-11.19,5.81-18.57-8.19,5.41-8.92,14.59-16.94,19.08-4.1-13.83,2.3-25.43,5.26-37.44-11.87,11.6-16.77,25.51-14.34,41.74a52.09,52.09,0,0,0,10.79,24.45c4.21,5.39,6.45,11.62,8.51,18,1,3.17,2.07,6.68-.95,9.33-3.43,3-7,1.11-10.22-.59-8.31-4.39-13-11.43-13.62-20.75-.4-5.64,0-11.33-.08-17,0-2.67.84-5.6-1-8.49-5.13,6.31-3.29,15-9.21,20.16-4.29-2.79-4.43-7.07-5.1-10.85s-.5-8-.75-11.95c-.22-3.57,1-7.36-1.14-12.27-3.35,7.3-5.16,13.26-5.53,19.67-1.39,24.36,17.65,48.81,42.77,54.47,15.92,3.59,32.15,5.69,47.9,10.12,7.72,2.18,15.36,4.56,22.11,9,2,1.35,4.84,2.51,3.92,6-3.92,1.66-8.15-1.18-11.81.84-5,2.78.84,7.63-1.72,10.84-4.25,5.3-.62,8.72,2.87,11.84,5.37,4.8,11.78,7.66,19.12,7.39,12.22-.45,13.57.6,12.67,14.86a55.94,55.94,0,0,1-1,6.91c-3.72,19.63-12.18,37.2-22.74,54-10.9,17.34-26.56,26.76-46.46,29.41-12.87,1.72-25.84,2.68-38.75,4.14-16.19,1.82-32.59,1.93-48.55,5.88A48.46,48.46,0,0,0,2075,292.94c-10.62,10.26-19.32,9.43-28.27-2.35-1.81-2.38-2.5-7.4-6.89-5.52-3.46,1.48-2.62,5.74-2.71,9-.12,4.4,2.23,7.5,5.42,10.2a69.52,69.52,0,0,1,8.14,7.35c4.25,4.94,3.94,7.63-1,11.63-2.85,2.29-6,4.24-9,6.29-46.1,31.1-95.67,55.41-147.54,75.21A870.5,870.5,0,0,1,1785.19,438c-12.74,3.05-14.71,1.77-18.09-11a42.57,42.57,0,0,1-1.22-10.89c0-11.15,2.46-21.81,6.35-32.19,3.49-9.32,9.68-15.69,19.38-18.68a119.63,119.63,0,0,0,15.87-6c7.06-3.32,10-9.35,8.74-16.22-1.16-6.14-5-9.53-13-10.1a58.75,58.75,0,0,1-26.5-8.05c-9.24-5.51-19.28-6.92-29.85-6.24-6.06.39-11.78,2.1-17.61,3.5-9.82,2.37-14.09.38-18.44-8.71a54.59,54.59,0,0,1-4.68-18.31c-.29-2.86.43-5.94-1.37-8.54-1.89.2-1.88,1.73-2.37,2.85-3.23,7.39-4.63,8.19-11.9,4.68a159.14,159.14,0,0,1-18.23-10.38c-10.46-6.87-14.3-17.29-11.31-29.55a56.59,56.59,0,0,1,13.2-24.37q3.85-4.33,7.67-8.69c-6.29,1.5-10.62,5.5-15.07,9.36-1.78,1.55-3.78,3.17-6.2,1.44-1.87-1.34-1.5-3.49-1.1-5.51a73.14,73.14,0,0,1,8.31-21.33c1.61-2.9,3.11-5.86,4.65-8.79-6.34,5.58-11.11,12.23-13.51,19.79-4.2,13.27-15.29,21.66-21.94,33.12-1,1.76-2.76,3.18-5,2.18-2.07-.93-2.39-3.09-2.49-5.11-.28-5.81,2-11.09,3.6-16.5,1-3.14,3.36-6.16,1.7-10.71-5,5-7,10.82-10.77,15.43-.85,1-1.89,1.91-3.37,1.56s-1.94-1.79-2.1-3.08c-.9-7.47,1.15-14.51,3.12-21.6.9-3.23,3.23-6.2,2.67-11.68-11.27,13.41-16.54,26.68-13.57,42.69a56.53,56.53,0,0,0,11,24.39c4.6,6,7.12,12.83,8.76,20,1.47,6.38-2.38,9.71-8.6,7.66a24.06,24.06,0,0,1-14.44-13c-3-6.22-3.4-12.82-3-19.54.29-5.14.67-10.27,1.08-16.42-4,3.07-4.11,6.56-5.16,9.57-.88,2.51-1.46,5.12-2.31,7.65-.52,1.55-1.12,3.42-3,3.59-2.58.24-3.21-2.08-3.77-3.91a60.19,60.19,0,0,1-2.4-21.73c.18-2.75,1.67-5.59-.53-9.95-7.88,18.65-8.7,35.45,2.57,51.35,10.08,14.24,23.93,22.82,41.33,25.61a403.53,403.53,0,0,1,40.1,8.33c7.09,1.89,14.1,4.1,20.47,7.85,2.71,1.59,6.23,2.74,6,6.85-1.92,1.89-3.92.91-5.86.8-7.87-.44-8-.4-7.17,7.21.23,2.09.36,3.85-.78,5.68-2.56,4.09,0,7,2.62,9.6,6.34,6.23,14.08,8.27,22.85,8.13,9.32-.15,10.92,2,10.18,11.37-.11,1.33-.37,2.64-.53,4-2.69,21.28-11.4,40.21-22.28,58.4s-26.48,28.48-47.32,31.48c-18.48,2.66-37.07,4.08-55.66,5.59-21.44,1.73-42.28,4.18-59.65,19.24-8.37,7.26-15.22,5.39-22.24-3.23-2.46-3-3.74-7-8.07-10-3,6.85-5.31,12.65-.47,19.11,2.28,3,8,4.41,6.58,9.07-1.27,4.24-6.4,5.49-10,7.88-2.49,1.67-5.14,3.09-7.73,4.61-60.49,35.48-125.17,60.83-192.56,79.58-19.91,5.53-39.91,10.7-60.25,14.41-8.25,1.51-9.86.09-9.16-7.86a89.33,89.33,0,0,1,6.78-27c3.28-7.83,8.71-13.22,16.77-16.07a177.74,177.74,0,0,0,17.68-6.89c7.11-3.41,10.44-10,9-16.14s-6.14-10.14-14.19-10.32c-9.37-.21-17.61-3.23-25.52-7.73-12.56-7.16-25.81-8.25-39.63-4.71-2.91.74-5.81,1.5-8.74,2.12-9,1.91-12.87.11-17.06-7.87-3.64-6.93-4.55-14.58-5.72-22.15-.32-2,.25-4.45-1.9-6.4-4.19,11.42-5.74,12.11-15.92,6.85-5-2.6-10-5.39-14.73-8.45-11.2-7.22-15.17-17.32-12.15-30,2.29-9.65,7.21-17.85,13.86-25.1,2.61-2.84,5.17-5.72,7.75-8.58-6.24,1.57-10.71,5.39-15.14,9.28-1.74,1.54-3.6,3.47-6.14,2.12-3.11-1.65-2-4.61-1.48-7.13,1.6-7.21,4.71-13.82,8.18-20.33,1.18-2.21,4.27-4,2.54-7.68a68.65,68.65,0,0,0-13.14,22.53c-4.11,12.21-14.87,19.53-20.9,30.24a3.47,3.47,0,0,1-4.32,1.6c-1.68-.65-2.32-2.26-2.64-4-.7-3.76.43-7.28,1.5-10.78,1.72-5.62,3.56-11.21,5.35-16.8-6.16,3.52-8.19,9.71-12.07,14.5-.85,1-1.79,2.18-3.25,2-2.1-.24-2.42-2.1-2.57-3.7-.66-7.1,1.06-13.88,3-20.62.85-2.91,3-5.64,1.65-10.16-11.63,13.27-15.41,27.37-11.75,43.4a55,55,0,0,0,10.27,21.5c4.38,5.67,6.78,12.19,8.7,18.95.85,3,1.18,6.08-1.58,8.29s-5.79,1.22-8.52-.08c-8.75-4.2-14.2-11.05-15.1-20.82-.51-5.62,0-11.32-.18-17-.08-2.61,1.08-5.63-1.58-8.54-3.45,5.65-3.51,11.61-6,16.63-1.43,2.84-3.52,3.12-5.08.12-2.52-4.82-3.22-10.12-3.27-15.5,0-4.83,0-9.66,0-14.49l-2.21.06c-6.39,14.47-6.86,29.11,1.36,43.3,9.35,16.13,23.43,26.11,41.9,29.55,15.72,2.94,31.48,5.65,46.86,10.15,6.73,2,13.36,4.29,19.09,8.47,1.71,1.26,4.19,2.49,2.81,5.43-2.36,1.52-4.6.29-6.87.11-6.18-.5-6.94.25-6.28,6.4.17,1.63.72,3.17.32,4.89-1.9,8.26-1.33,10.21,5.23,14.37,6,3.8,12.31,6.21,19.8,5.4,8.54-.91,9.84.71,9.54,9.39-.06,1.66-.18,3.33-.37,5-2.33,20.26-10.54,38.3-20.33,55.95-12.66,22.85-32.21,33.61-57.53,35.79q-32.34,2.79-64.64,6.19c-15.16,1.61-29.31,5.49-40.25,17.51-5.84,6.4-15.07,5.86-21.46-.3-2.61-2.52-4.54-5.72-6.76-8.63-1-1.3-1.84-3.09-3.85-2.45-1.74.54-2.35,2.29-2.71,3.91-1.38,6.27-.67,11.9,4.87,16.17a51.69,51.69,0,0,1,7.44,6.64c4.75,5.4,4.41,7.84-1.3,12.11-2.13,1.6-4.4,3-6.63,4.48A837.7,837.7,0,0,1,865.78,780,837,837,0,0,1,764.4,819.72c-11.73,3.73-11.6,3.61-19.32-5.39a161.69,161.69,0,0,0-15.08-16c-36.17-32.15-78.2-42-124.63-29.92-35.45,9.22-54.24,42.68-46,78.35.45,1.94,1,3.86,1.49,5.81.89,3.64-.39,5.83-4.28,6.16-6.31.52-12.61,1.28-18.93,1.48a745,745,0,0,1-82.93-1.47,18.1,18.1,0,0,1-12.95-6.19c-8.11-8.87-18.52-11.17-27.94-5.08-14,9-30,10.65-45.31,14.71-4.14,1.1-8.7,1.5-12.67-.94-9.69-5.93-19.83-11.48-19.95-25.19,0-2.88-1.23-5.91-2.5-8.58-3.15-6.59-6.1-13.15-14.2-15.76-5-1.62-5.16-5-.57-7.69,4.32-2.57,8-5.17,7.16-10.73-1-6.73.05-12.13,5.74-16.89,4.1-3.42,2.67-7.73-2.35-10.26a28.34,28.34,0,0,0-3.77-1.28c-11.41-3.82-13-6.37-11.53-18,.92-7-.49-9.77-7-12.41a56.12,56.12,0,0,1-8.94-4.39,52.92,52.92,0,0,0-61.59,4,129.06,129.06,0,0,0-19.26,20.25c-3.76,4.79-8.09,8.92-13.58,11.57-10.88,5.26-22.5,8.24-34.3,10.53-5,1-9.26,0-11.24-5.61a16.45,16.45,0,0,0-5.29-7.18c-4.25-3.47-11.37-4.16-16-1.61-4.32,2.38-7.09,8.28-6.44,13.71,1.11,9.3,11.38,16.39,19.85,12.52,6.45-3,12.57-3.31,19.28-2.89a94.64,94.64,0,0,0,19.94-1c7.9-1.19,15.87-1.83,23.9-.83,7.64.94,13.52,5.14,16.31,11.7,2.53,6,5,12,7.85,17.73-1.08.77-1.58,1.41-2.13,1.46-3,.29-6,.44-8.95.62-17.47,1-34.35,4.33-49.87,12.93-8.8,4.88-8.83,4.84-15.47-3a330.15,330.15,0,0,0-38.23-38c-7.92-6.72-16.69-9.31-26.9-7.41-5.26,1-10.59,1.55-15.91.53-8.57-1.64-10-4.92-5.21-12,3.09-4.62,6.43-9.16,6.13-14.81-2.24-1.59-3.79-.79-5.25-.07-6,3-11.82,6.19-18.84,5.88-2.12-.1-4.31,1-4.87,2.91-2.38,8.37-7.88,7.39-14.18,5.38-3.83-1.23-7.26,0-9.69,3.37-2.23,3.08-1.22,6.17,2.56,6.53a77.08,77.08,0,0,0,12-.29C52.8,776.28,56,779.72,54,789.82c-1.53,7.84-3.91,15.57-4.83,23.47-1.18,10-5.55,16.42-14.51,21.92-27.51,16.9-39,41.94-33.23,74.08,3,16.74,10,31.76,21.79,44.21,2.68,2.81,5.6,6.91,10,5,4.75-2,3.35-7,2.37-10.66-3.34-12.43,3-20.6,11.77-27.46C54.26,915,62,914.51,70,918.48c12.13,6,16.68,16.58,12.35,29.83-6.17,18.83-10,38-9.06,57.93,1.25,25.28,10.56,46.75,30.92,62.38,23.33,17.91,50.42,23.28,79.18,22,13.73-.61,26.92-4.26,40.13-7.8,7.86-2.11,9.25-1.27,11.53,6.52q4.36,14.87,8.11,29.91c2.15,8.63,1.69,9.51-7,12C215.59,1137,195,1142.64,174.4,1148a51.91,51.91,0,0,1-37-3.77,54.9,54.9,0,0,1-26.13-26.53c-2.73-5.76-5.51-6.8-10-4.64-5.4,2.58-3.25,6.6-1.66,10.2a64,64,0,0,0,23.45,28c18.43,12.28,38.36,14,59.36,8.34q118.65-32.19,237.31-64.32,127.81-34.66,255.62-69.36c62-16.77,104.51-77.15,97.19-142.71a149.19,149.19,0,0,0-5.62-27.35c-1.35-4.4.07-7.09,4.53-8.24,1.93-.5,3.82-1.17,5.75-1.69,67.24-18.31,131-45,191.76-79.06a64.78,64.78,0,0,1,8-4c3.65-1.44,5.13.72,4.73,3.95a14.46,14.46,0,0,1-11.15,12.78c-7.55,2-10.72,7.29-12.76,13.94-1,3.19-2,6.37-2.77,9.61-2.1,8.68-6.08,16.13-13.29,21.71a34.87,34.87,0,0,0-8.37,9.87c-4,6.69-8.59,12.13-17.66,8.88a5,5,0,0,0-4.77.87c-3,2.51-6.38,2.83-10.21,2.9-4.59.08-7.52,5.29-7.16,11.27.29,4.79,2.35,6.58,7.93,6.84,5.14.24,9.89-1.35,14.47-3.38,17.89-8,34.09-18.18,46-34.26,2.06-2.78,3.73-6.32,8.29-7.32a25,25,0,0,1-5.1,21.8c-5.39,6.84-10.53,13.71-14,21.74-1.34,3.06-3.58,7.13-6.86,6.5-9.16-1.75-15.1,5.91-23.3,6.81-4.87.53-6.79,6.71-5.12,13.25,1.32,5.19,3.7,6.54,9.77,5.47,5.69-1,10.72-3.58,15.54-6.62,18.36-11.59,33.79-26,43.57-45.73a61.34,61.34,0,0,1,18.4-22.05,125.83,125.83,0,0,0,26-26.14,196.72,196.72,0,0,0,18.05-29.94c3.28-6.69,8.31-10,15.47-11a46.87,46.87,0,0,1,13-.29c14.88,2.11,30,.87,44.86,3a45.29,45.29,0,0,0,12-.44c18.17-2.41,36.33-5.21,54-9.8,23.21-6,46.32-12.7,65.91-27.61a29.43,29.43,0,0,1,7.9-4.21c5.19-1.82,8.6.65,8.57,6.06a19.46,19.46,0,0,1-1.18,5.84c-6.16,18.86-18.83,31-37.88,36.48-2.52.72-5.38.4-6.9,3.22-1.88,3.52-5.19,3.74-8.64,3.65-2.67-.06-5.4-.16-7.35,2.21-2.49,3-1.08,11.56,2.53,15.89,3.29,4,7.06,3.33,10.66.85,4.39-3,8.61-6.29,12.73-9.67,9.94-8.16,22.09-11.12,35.69-16.72-5.62,10.77-12.72,16.51-20.7,21.32-2,1.18-4.77,1.51-5.72,3.74-2.18,5.08-6.33,6.36-11.21,6.92a5.29,5.29,0,0,0-5.09,5.23c-.32,4,5,13.89,8.61,15.12,5.8,2,8.2-3,11.45-6.08a26.83,26.83,0,0,0,3.17-3.85,72.54,72.54,0,0,1,22.53-21c11-6.38,16.34-15.83,17-28.62.38-7.25,2.3-14.46,4-21.58,2.41-10,5-20,6.73-30.24a44.64,44.64,0,0,0,.73-12.93c-1.14-9.2-6.64-13.59-15.75-12.48-3.29.39-6.49,1.45-9.74,2.17-5.53,1.22-11,2.78-16.6,3.53-7.67,1-10.09-.75-9.83-8.42.39-11.42-3.18-21.63-7.67-31.74-1.09-2.44-2.22-4.86-3.21-7.33-3.64-9.11-3.15-10.22,6.27-11.59,13.51-2,27.08-3.5,40.59-5.45,76.28-11,150-31,220.22-63.12,2.12-1,4.25-1.94,6.44-2.72,2.71-1,4.34.19,5.35,2.85,4.4,11.55-.08,22.33-11.82,26.64a16.11,16.11,0,0,0-10.55,11c-1.72,5.4-3.27,10.85-4.93,16.27-1.59,5.16-3.73,10-8,13.64a75.51,75.51,0,0,0-15,17.31c-2,3.13-5.08,7.23-8.46,6.09-8.24-2.77-14.46,3.62-22.07,3.44-4.79-.11-7.06,5.2-6.11,11.67.7,4.83,3,6.72,8.34,6.34a40.51,40.51,0,0,0,13.45-3.65c17.91-8,34-18.38,46-34.28,2.06-2.73,3.62-6.33,8.26-7.42,1.55,8.53-.22,15.76-5.12,21.91-5.42,6.82-10.4,13.81-14,21.77-1.53,3.38-4.06,7.37-7.89,6.77-8.82-1.38-14.44,6.07-22.4,6.94-4.25.47-5.76,5.4-4.79,11.61.81,5.1,2.85,6.88,8.09,6.71,5.88-.2,10.91-2.92,15.73-5.91,18.72-11.62,34.58-26,44.65-46.06,4.25-8.45,9.73-15.89,17.48-21.52,18.79-13.65,32.59-31.61,42.38-52.31,5.92-12.55,14.74-17.22,27.77-16.13,2.32.2,4.67.09,7,.36,32,3.75,63.79,2.62,95.31-4.75,28-6.55,55.67-13.71,79.28-31.29a24.47,24.47,0,0,1,4.36-2.44c2.74-1.27,5.6-2.64,8.42-.33s2.27,5.35,1.87,8.34a19,19,0,0,1-1,3.86c-6.72,18.49-19,31.05-38.55,35.54-2.36.53-4.72.86-6,3.06-2.23,3.9-5.63,3.83-9.5,3.7-7.35-.25-8.92,1.7-7.66,8.79a29.94,29.94,0,0,0,1.95,6.7c2.73,6.33,5.91,7.63,11.68,4.08a132,132,0,0,0,13.61-10.14c9.75-7.88,21.58-10.82,33.36-14.51A44.21,44.21,0,0,1,1782.18,588c-2,1.08-5.09,1-5.8,3.46-1.52,5.15-5.65,5.9-9.86,7.2-5,1.54-6.23,4.16-4.9,9.1a19.67,19.67,0,0,0,5.61,9.3c2.52,2.38,5.35,2.72,8.15.65a22.34,22.34,0,0,0,5.09-4.74c8.43-11.87,19.06-21.26,31.31-29a21.42,21.42,0,0,0,10.2-16.45c1.65-16,6-31.39,9.68-46.94,2-8.44,3.66-17,2.82-25.74-1-10.89-7.19-15.21-17.77-12.49-8.39,2.16-16.71,4.69-25.33,5.71-6.47.76-8.76-1.06-9-7.51-.24-7.68-.25-15.31-2.64-22.74-1.14-3.55.35-5.77,4-6.57,2.27-.5,4.52-1.13,6.82-1.54,87.26-15.52,170.56-42.55,248.44-85.36,2-1.12,4.13-2.18,6.25-3.13,2.56-1.14,4.41-.49,5.56,2.26,3.66,8.75,0,19.93-9.06,22.44-9.35,2.59-12.61,8.84-14.82,16.89-1.24,4.5-2.67,8.94-4,13.4s-3.53,8.68-7.18,11.81a74.48,74.48,0,0,0-15,17.25c-1.77,2.84-4.31,6.56-7.55,5.82-8-1.82-14.65,3.37-22.23,3.37-5.07,0-7.59,4.07-7.46,10.66.1,5.51,2.5,8,8.09,7.64a40,40,0,0,0,13.54-3.29c17.89-7.95,34.16-18.08,46.17-34a65.22,65.22,0,0,1,5.17-6.09,3.58,3.58,0,0,1,2.63-.94c1.69.17,1.9,1.75,1.82,3-.4,6.41-1.65,12.64-5.84,17.74-5.53,6.72-10.55,13.69-14,21.75-1.47,3.41-4,7.44-7.77,7-8.73-1-14.54,5.9-22.46,7-4.77.65-6.53,6-5.15,12.28,1,4.76,3.45,6.62,8.66,6.14,6.14-.56,11.44-3.52,16.52-6.72,17.76-11.19,33-25,42.63-43.95a76.26,76.26,0,0,1,22.45-26.4,112.86,112.86,0,0,0,24.62-26.05c5.88-8.52,11.52-17.23,15.88-26.59,4.07-8.74,10.68-12.22,19.89-12.13,8,.08,16,.5,23.95,1.1,16.6,1.24,33.31,2.56,49.88.18,13.84-2,27.67-4.39,41.26-7.65,25-6,49.71-12.86,70.76-28.69a29,29,0,0,1,7.9-4.23c5.65-1.94,9.14.94,8.71,6.94a20.08,20.08,0,0,1-1.16,4.84q-9.39,28.14-37.83,36.65c-2.22.66-4.89.46-6.27,2.59-2.62,4.07-6.46,3.81-10.57,3.89-6.46.12-8.19,2.34-7.32,8.78a27,27,0,0,0,1.88,6.71c2.89,6.9,6,8.05,12.32,4,4.75-3.05,9-6.8,13.53-10.26,8.31-6.41,25.22-13.51,33.84-13.92-5,9.05-12.24,15.09-20.95,19.5-2,1-4.8,1-5.37,3.84-.93,4.64-4.68,4.94-8.23,6-7.43,2.16-8.42,4.51-5.36,11.64,4.87,11.33,9.73,12.21,18.06,3.23a35.35,35.35,0,0,0,3.24-3.8,74.38,74.38,0,0,1,24.06-22.2c9.84-5.61,14.54-14.18,15.38-25.27.74-9.67,2.89-19.09,5.43-28.44a200.33,200.33,0,0,0,6.41-31.31C2371.57,288.94,2363.9,282.47,2347.94,286.79ZM748,846.37c-.76,3.11-3.67,3.64-6.2,4.22-8.11,1.88-16.21,3.77-24.38,5.29-15.37,2.86-30.78,5.47-46.18,8.17-1.3.22-2.63.32-2.58.31-4.69.29-6.71-.93-8.4-4.13-3-5.63-9.82-6.05-11.8-.34-2.76,7.94-8.46,8.36-14.85,8.81-11.61.82-23.15,2.6-34.84,2.3a59.55,59.55,0,0,1-6-.07c-4.08-.53-9.12-4.69-8.4-7.22,1.15-4.07,5.15-3.57,8.26-3.87,42.48-4.05,84.27-11.91,125.6-22.4,5.8-1.48,11.54-3.25,17.4-4.44C741.3,831.85,749.35,840.69,748,846.37ZM570.21,830.18A51.18,51.18,0,0,1,605.73,782c22.45-7.29,45.25-6.94,67.89-.57,21.67,6.11,40,17.77,55.41,34.19,1.14,1.22,2.25,2.46,3.26,3.78,5.11,6.66,4.63,8.74-3.46,11q-35.66,9.77-72,16.48c-21.62,4-43.38,6.89-65.19,9.5-13.54,1.62-16.33-.28-19.85-13.26A44.3,44.3,0,0,1,570.21,830.18Zm-117,32.31c34.94,2.31,69.9,1.76,104.85.5,3.77-.14,7.41-.25,9.62,3.63,1.69,3,1.36,5.11-2.37,5.8a25.12,25.12,0,0,1-4,.28,695.45,695.45,0,0,1-83.78-3.27c-7.62-.76-15.22-1.66-22.82-2.58-1.88-.23-4.06,0-5.45-2.64A3.9,3.9,0,0,1,453.22,862.49Zm-11.27,213c-5.17,1.27-10.27,2.84-15.41,4.23l-153.37,41.57c-.64.17-1.27.4-1.92.57-12.76,3.32-12.93,3.25-16.48-9.41-2.24-8-4.38-16.07-6.53-24.11-.6-2.25-1.08-4.54-1.39-5.85-.38-3.62.63-5.62,3.11-6.55,2.8-1,5.68-1.9,8.57-2.69q82.44-22.41,164.9-44.79c1.6-.44,3.21-.89,4.85-1.19,6.52-1.21,7.53-.9,9.44,5.51,3.33,11.17,6.22,22.48,9.27,33.73C448.24,1071.15,447,1074.29,442,1075.52Zm232.16-63.08c-67.3,19-134.93,36.81-202.44,55.07-9.17,2.48-10.21,1.9-12.82-7q-4.2-14.38-7.91-28.92c-2.27-8.85-1.68-9.89,7.62-12.51,13.78-3.88,27.63-7.52,41.45-11.25a274.16,274.16,0,0,0,34.88-12.14c10.47-4.42,17.58-11.55,21-22.55,2.2-7,4.34-14,5.33-21.28,1.23-9.06-1.44-11.85-10.4-10.34q-29.55,5-59,10.33a35.24,35.24,0,0,1-15.79-.36c-19.94-5.32-39.53-12-60-15.27a14.57,14.57,0,0,1-9.81-6.3c-5.42-7.6-11-15.08-18.9-20.43-3.12-2.12-2.27-4.61-.07-6.64a85.85,85.85,0,0,1,8.58-6.85c6.3-4.48,11.17-10.46,16.8-15.63,6-5.55,7.5-5.39,12.81,1.3,2.22,2.81,4.43,2.51,6.93,1.06,3.76-2.18,7.51-4.47,10.34-7.79s6.11-4.52,10.56-4c38.07,4.87,76.35,5.66,114.67,5.24a20.42,20.42,0,0,1,13.75,4.86c15,12.19,32.44,14.72,50.93,12.23,10.14-1.36,18.57-6.31,23-15.65,3-6.38,7.73-8.63,14-9.45,24.78-3.23,49.23-8.25,73.64-13.53,7.76-1.68,9.15-.79,11.73,6.79,3.9,11.45,5.06,23.39,5.85,34.09C759.67,954.35,723.18,998.6,674.11,1012.44ZM985.4,724.81c-2.28,8.37-3.17,17.32-4.25,26.23-.62,5.17-4.87,6.85-8.52,9-19.81,11.67-40.28,22.08-61.07,31.86a834.12,834.12,0,0,1-134.69,49.77c-1,.26-1.9.6-2.87.84-9.61,2.47-15.71-1.69-17.36-11.7a4,4,0,0,1,2.62-4.74c2.45-1,5-1.84,7.53-2.65A850.09,850.09,0,0,0,975,723.47c1.66-1.09,3.34-2.19,5.06-3.19,1.44-.83,3.13-1.76,4.6-.51S985.67,722.81,985.4,724.81ZM1521.08,523.7c-1.07,6.55-2.56,13.06-4.24,19.49-1.15,4.41-5.47,5.57-9,7.25a682.88,682.88,0,0,1-87.33,34.15,886,886,0,0,1-152.86,33.49c-9.71,1.27-19.52,3.88-29.52,1.29,20-5.75,40.11-9.94,60-15.37,73.93-20.19,144.41-48.47,209.88-88.67,2.9-1.78,5.94-5.53,9.77-2.61C1521.17,515.32,1521.73,519.71,1521.08,523.7Zm534-191a15.47,15.47,0,0,0-.47,1.93c0,14.12-8.17,21.39-20,27.79-65.88,35.52-135.66,60.12-208.58,76.22-12.67,2.8-25.45,5.17-38.21,7.53-3.37.63-6.94,1.6-11.48-.62,4.29-2.74,8.16-3.26,11.89-4.17,81.75-19.93,159.46-49.86,231.56-93.62,10-6,19.61-12.62,29.43-18.9,1.62-1,3.44-2.56,5.36-.91C2055.89,329.17,2055.24,331.08,2055,332.71Z"/><path class="cls-1" d="M2182.33,46.68c3,8.94,2.9,16.2,2.26,23.41-.28,3.17-2.23,5.83-5.9,5.54s-5.08-2.89-4.93-6.31C2174.11,61.58,2176,54.36,2182.33,46.68Z"/><path class="cls-1" d="M1112.47,439.52c3.26,8.88,3,16.94,1.88,25-.42,2.84-2.76,4.55-5.87,4.09a4.93,4.93,0,0,1-4.54-5.54C1104.34,454.79,1105.91,446.89,1112.47,439.52Z"/><path class="cls-1" d="M1647.34,242.93c2.73,9.06,2.22,16.31,2.21,23.45,0,3.27-1.91,5.92-5.6,5.66-3.51-.26-5.41-2.84-5.17-6.19C1639.33,258.22,1641,250.89,1647.34,242.93Z"/><path class="cls-1" d="M605.48,877.11c1.37-2.35,3.9-2.39,6.06-2.62,8.17-.88,16.36-1.55,24.55-2.17,1.55-.12,3.52-.19,3.92,2,.26,1.43-.83,2.36-1.92,3.14C631.26,882.38,613.24,882.2,605.48,877.11Z"/><path class="cls-1" d="M1135.5,496.31c-10.66-.08-20.3-2.27-26-12.48C1119.12,486,1127.64,490.45,1135.5,496.31Z"/><path class="cls-1" d="M2203.78,103.18c-9.41-.47-18.38-1.85-23.45-11.41A42.21,42.21,0,0,1,2203.78,103.18Z"/><path class="cls-1" d="M1643.59,286.35c10.92,3.06,18.72,7.83,27.13,12.58C1660.89,301.72,1650.68,297.3,1643.59,286.35Z"/></g></g></g></svg>