<svg xmlns="http://www.w3.org/2000/svg" viewBox="0 0 578.64 581.47"><defs><style>.cls-1{fill:#fff;}</style></defs><title>snowman_body</title><g id="Layer_2" data-name="Layer 2"><g id="Layer_1-2" data-name="Layer 1"><path class="cls-1" d="M276.6,533.73c-33.55-3.29-64.43-11.45-93.73-25.32Q103.48,470.8,59.6,394.66C40.92,362.13,30,327,26,289.79a173.71,173.71,0,0,1-1.35-22.93c.09-3.45,1.33-4.21,4.23-2.42,12.28,7.57,23.83,16,31.78,28.38,4.88,7.62,6.69,15.8,4.38,24.82-1.19,4.62-2.91,10.17,2.1,13.27s9.63-.51,13.57-3.57c14.39-11.16,25.46-25.39,35.8-40.14,17.38-24.82,32.18-51,40.24-80.51.83-3.05,1.39-6.17,2.09-9.25,1-4.46,1.83-4.71,5.45-1.69a63.52,63.52,0,0,1,19.48,70.62c-.85,2.41-3.51,5.48-1.73,7.23s4.82-1,7.27-1.75c14.64-4.78,29.5-8.34,45-8.05,12.83.24,24.13,3.31,30.05,16.42,1.25,2.76,3.5,5,7.1,4.48,3.34-.46,4.56-3,5.55-5.76a50.56,50.56,0,0,0,2.61-14.7c1.09-22.76-.7-45.28-6.36-67.4-1.05-4.1-.76-5.52,4.15-5.32,45.53,1.89,90.91.95,135.69-8.78,29.52-6.41,57.78-16.05,83-33.27,13.47-9.22,25.46-20,33.55-34.4,2.18-3.88,3.35-3.52,5.56-.13,16.7,25.67,29.17,53.28,35.8,83.13,20.63,92.88-.29,175.54-63.87,246.4C462.94,493.68,407,521.93,341.74,532c-4.43.69-8.91,1-13.37,1.73M352.9,313.11a26.85,26.85,0,0,0-1.72-2.12c-10.34-10.63-20.75-21.19-31-31.9-2.15-2.25-3.49-2.11-5.63,0-10.28,10.21-20.6,20.4-31.14,30.33-2.91,2.74-2.39,4.25.11,6.75,9.53,9.54,18.79,19.37,28.35,28.89,2.75,2.73,2.91,4.37,0,7.18C299.59,364,287.66,376.15,275.43,388c-2.85,2.75-2.78,4.42,0,7.19,12.13,12.13,23.95,24.58,36.1,36.69,3.22,3.22,3.89,5.2.13,8.7C301.54,450,292,460,282,469.53c-2.69,2.58-2.73,4.22-.08,6.87q15,15,29.63,30.42c2.54,2.67,4.16,2.8,6.83.1q14.92-15.1,30.32-29.75c2.77-2.62,2.84-4.13.2-6.77-10-10-19.72-20.32-29.76-30.3-2.83-2.81-2.77-4.51.07-7.23,12.74-12.22,25.21-24.74,38-36.91,3-2.82,2.68-4.36,0-7.07-11.88-11.91-23.44-24.15-35.38-36-3.38-3.36-3-5.34.26-8.4,9.7-9.14,19.12-18.57,28.63-27.9C351.61,315.68,352.8,314.91,352.9,313.11Zm180.21,268-.06.35.32-.15Z"/><path class="cls-1" d="M145.76,0c20.38.69,36.93,8.71,52.05,20.33a161.06,161.06,0,0,1,19.25,18.14c1.45,1.55,2.91,3.39-.39,4.43-15.79,5-24.4,17.3-31.5,31-9.72,18.79-15.12,39.07-20,59.52-4.37,18.47-8,37.1-11.1,55.82-3.37,20.1-10.42,38.87-20,56.76-14,26.15-30.57,50.39-51.66,71.38a44.18,44.18,0,0,1-8.52,6.9c-.82.5-1.7,1.32-2.74.78-1.36-.72-.79-2.07-.64-3.14.63-4.6,2-9.1,1.63-13.84-1-15-9.72-25.5-20.28-34.86-14.26-12.64-31-21.17-48.25-28.9-1.32-.59-3.35-.66-3.63-2.26-.35-2,1.87-2.51,3.14-3.39,22-15.19,33.71-36.1,35.71-62.8,1.25-16.6,1.16-33.25,2.57-49.85,2.89-34,16.5-63.12,38.45-88.76C91.52,23.7,104.63,12.08,121.37,5.13A73.07,73.07,0,0,1,145.76,0Z"/><path class="cls-1" d="M314,170c-14.85-.77-31.18-.69-47.41-2.68-2.09-.26-3.89-.68-5-2.69-13.61-24.63-28.2-48.79-37-75.75-2.48-7.61-4.29-15.4-4-23.53a27.43,27.43,0,0,1,2.58-11.11c3.21-6.63,7.18-8.09,13.75-4.8,16.51,8.26,33.81,14.2,52.11,16.7,52.73,7.23,99.75-5.86,140.4-40.49,11.29-9.62,11-9.79,23.27-1.49a257.43,257.43,0,0,1,65.13,63.5c3.28,4.55,3.33,7.89,0,12.35-11.59,15.57-26.55,27-43.28,36.38-28.48,15.92-59.48,23.95-91.44,28.84C360.74,168.67,338.11,169.45,314,170Z"/><path class="cls-1" d="M217.37,50C209.48,74,219.05,94.31,228,114.58a381.92,381.92,0,0,0,23.17,44.23c12.55,20.72,18.19,43.48,21,67.16,1.63,13.89,2.6,27.84,1,41.83-.33,2.91.2,7.21-2.47,8.1s-3.08-3.58-4.58-5.58c-7.62-10.1-18.6-12.37-30.14-12.9-13.27-.61-26.15,2.12-38.91,5.49-5.73,1.52-5.77,1.48-4.56-4.19,3.76-17.65,1.1-34.11-9.28-49.06-5.4-7.79-10.52-15.82-18.12-21.81-2.15-1.68-3.76-3.69-3.17-6.82,5.89-30.92,11.47-61.92,23-91.4,4.74-12.15,10.5-23.81,20.43-32.79C208.57,53.85,212,51.05,217.37,50Z"/></g></g></svg>