<svg xmlns="http://www.w3.org/2000/svg" viewBox="0 0 474.09 518.52"><defs><style>.cls-1{fill:#fff;}</style></defs><title>snowman_head</title><g id="Layer_2" data-name="Layer 2"><g id="Layer_1-2" data-name="Layer 1"><path class="cls-1" d="M169.27,0c9.59,19.05,19.57,37.86,31.47,55.63,22.86,34.1,51.08,63.1,83.3,88.36,2.95,2.31,5.55,2.84,9.12,1.5,8.59-3.22,17.34-6.09,26.74-4.83,8.65,1.15,12.68,6.89,11.14,15.58-1.77,9.9-6.57,18.48-12,26.71-16.11,24.37-36.42,45.05-57.92,64.56-25.23,22.88-52.15,43.61-81.5,61-17.37,10.28-35.06,20-55.15,24.07a37.56,37.56,0,0,1-6.94.71c-13.51.21-18.73-6.71-15-19.87,2.67-9.43,7.54-17.8,13.23-25.63,2.61-3.58,2.83-6.27.82-10.29C89.75,223.7,52,179.14,4,143.08c-5.15-3.88-5.18-3.94-1-9A530.69,530.69,0,0,1,157.81,5.58C161,3.81,164.12,1.86,167.27,0Z"/><path class="cls-1" d="M141.2,352c0-4.66-.08-9.33,0-14,.06-2.41.73-4.45,3.41-5.51,35.76-14.09,66.81-35.85,96.54-59.67,27.25-21.82,52.51-45.7,73.9-73.43,2.55-3.3,4.94-6.72,7.19-10.21,1.64-2.55,3.5-3.41,6.64-3,75.22,10.14,133.9,68.65,143.73,143.45,12,91.32-52.1,175.3-143,187.38S154.47,465,142.22,374.46A107.1,107.1,0,0,1,141.2,352Zm278,13.86a13.37,13.37,0,0,0-2-1.15c-31.27-9.34-62.57-18.61-93.82-28-4.36-1.32-6.9.42-9.23,3.75-7.76,11.09-8.11,32.92-.77,44.39,2.38,3.73,5,4.87,9.55,3.77,23.29-5.7,46.66-11.06,70-16.54ZM315.63,462.46a7.05,7.05,0,0,0,1.61-.74,119.77,119.77,0,0,0,15.49-14.11c1.74-1.91.28-2.94-1.13-4-4.87-3.5-9.73-7-13.89-11.38-1.89-2-3.33-1.5-5,.22-4,4.08-8.61,7.33-13.11,10.76-2.52,1.92-4.42,1.7-6.32-.79-2.53-3.3-5.29-6.43-7.75-9.78-1.44-2-2.79-2.46-5-1.24-3.94,2.16-8,4.17-12,6.1-2.31,1.1-3,2.42-1.38,4.63,2.76,3.75,5.57,7.47,8.19,11.32,1.82,2.67,3.77,2.7,6.31,1.12,3.82-2.38,7.81-4.47,11.57-6.93,2.27-1.49,3.7-1.12,5.56.76,4.11,4.12,8.49,8,12.79,11.9A6.34,6.34,0,0,0,315.63,462.46ZM295.18,293.59c.06-10.32-7.65-18.23-17.81-18.26A17.7,17.7,0,0,0,259.45,293c-.09,10.39,7.44,18.36,17.59,18.6A17.79,17.79,0,0,0,295.18,293.59Zm56.54-18.27a18.15,18.15,0,1,0,18.18,18.09A18.42,18.42,0,0,0,351.72,275.32Zm49.53,156.41c1.79.46,3.22-.81,3.88-3,.91-2.92,3.89-6.13,1.94-8.75-2.09-2.82-6.48-1.85-9.85-2.45-2.63-.47-2.9,2.25-3.63,4-3.48,8.24-3.46,8.25-11.82,5.59a9.71,9.71,0,0,1-1.4-.5c-3.46-1.72-5.61-.85-7.53,2.69-5.51,10.13-5.62,9.92,5.51,13.33,3.6,1.1,5.77.44,7-3.1,2.45-7.26,6.22-12,14.77-8A5.27,5.27,0,0,0,401.25,431.73Zm-51.88-1.22a2.65,2.65,0,0,0-2.5,1.34c-3.25,4-6.47,8-9.76,12-1.51,1.83-.24,2.69,1.11,3.48,4.31,2.51,8.65,5,13,7.46,1.83,1.05,3.46,1.06,4.81-.8,2.92-4.05,5.88-8.08,8.76-12.15.75-1.07,1.78-2.59.16-3.47C359.82,435.62,354.57,433.11,349.37,430.51Zm-94.14-4.6c-4,1.71-10.14,1.12-11.9,4.94s2.65,7.69,4.7,11.39c.85,1.54,2.35,1.52,3.93,1.23,11.19-2,12.24-4,7.06-13.65-.47-.88-.89-1.78-1.4-2.63S256.36,425.43,255.23,425.91Zm-24.66,5.78c2.57-1.74,7.72.83,9.24-3.68,1-3-4.61-11.18-6.36-10.4-3.31,1.46-8.91-1.57-9.9,3.87C222.74,426,227.1,431.72,230.57,431.69Z"/></g></g></svg>