<svg xmlns="http://www.w3.org/2000/svg" viewBox="0 0 465 221"><defs><style>.cls-1{fill:#fff;}</style></defs><title>train</title><g id="Layer_2" data-name="Layer 2"><g id="Layer_1-2" data-name="Layer 1"><path class="cls-1" d="M18,25h89a0,0,0,0,1,0,0V43a0,0,0,0,1,0,0H0a0,0,0,0,1,0,0v0A18,18,0,0,1,18,25Z"/><rect class="cls-1" x="107" y="35" width="13" height="4"/><rect class="cls-1" x="117" y="35" width="4" height="17"/><rect class="cls-1" x="114" y="51" width="10" height="29"/><polygon class="cls-1" points="57 51 57 65.04 71.23 51 57 51"/><polygon class="cls-1" points="87 90 87 66.14 64.76 90 87 90"/><polygon class="cls-1" points="87 51 76.99 51 57 71.94 57 84.99 87 54.93 87 51"/><path class="cls-1" d="M11,43V98H25V47H47V98h55V43ZM91,94H53V48H91Z"/><rect class="cls-1" x="147" y="11" width="3" height="12"/><rect class="cls-1" x="145" y="22" width="5" height="58"/><rect class="cls-1" x="265" width="38" height="80"/><rect class="cls-1" x="262" width="44" height="5"/><rect class="cls-1" x="262" y="16" width="44" height="4"/><rect class="cls-1" x="303" y="50" width="3" height="10"/><rect class="cls-1" x="306" y="53" width="38" height="4"/><rect class="cls-1" x="340" y="56" width="3" height="24"/><rect class="cls-1" x="362" y="80" width="8" height="66"/><polygon class="cls-1" points="405 113.35 375 80.7 375 146 405 113.35"/><rect class="cls-1" x="47" y="145" width="97" height="7"/><path class="cls-1" d="M102,80V98h43v9H47v13h98v6H47v9h98v5h10V113H144v-5h91v2a9,9,0,0,1,9-9v45h-9v7H356V80Zm99,14V88H165V98H151V94h10V84h44v7h53v7h-3V94Zm58,52H249V101h10Zm15,0H264V101h10Zm15,0H279V101h10Zm15,0H294V101h10Zm15,0H309V101h10Zm15,0h-9V101a9,9,0,0,1,9,9Z"/><rect class="cls-1" x="177" y="112" width="12" height="27"/><rect class="cls-1" x="160" y="112" width="12" height="27"/><rect class="cls-1" x="194" y="112" width="12" height="27"/><rect class="cls-1" x="228" y="112" width="7" height="27"/><rect class="cls-1" x="211" y="112" width="12" height="27"/><rect class="cls-1" x="144" y="139" width="1" height="6"/><path class="cls-1" d="M11,105H25a0,0,0,0,1,0,0v63.8a4.2,4.2,0,0,1-4.2,4.2H15.2a4.2,4.2,0,0,1-4.2-4.2V105a0,0,0,0,1,0,0Z"/><rect class="cls-1" x="25" y="145" width="72" height="12"/><rect class="cls-1" x="59" y="157" width="4" height="64"/><rect class="cls-1" x="33" y="157" width="4" height="64"/><rect class="cls-1" x="37" y="157" width="22" height="54"/><rect class="cls-1" x="306" y="153" width="50" height="4"/><rect class="cls-1" x="344" y="153" width="61" height="20"/><path class="cls-1" d="M387,173h43a3,3,0,0,1,3,3v0a3,3,0,0,1-3,3H387a0,0,0,0,1,0,0v-6a0,0,0,0,1,0,0Z"/><path class="cls-1" d="M386,214h76a3,3,0,0,1,3,3v0a3,3,0,0,1-3,3H386a0,0,0,0,1,0,0v-6A0,0,0,0,1,386,214Z"/><rect class="cls-1" x="387" y="179" width="6" height="35"/><polygon class="cls-1" points="406 214 402 214 398 179 402 179 406 214"/><polyline class="cls-1" points="410.45 179 419.45 214 415.45 214 406.45 179"/><polygon class="cls-1" points="434.45 214 430.45 214 416.45 179 420.45 179 434.45 214"/><polyline class="cls-1" points="429.1 179 453.1 214 449.1 214 425.1 179"/></g></g></svg>