<svg xmlns="http://www.w3.org/2000/svg" viewBox="0 0 300 157.5"><defs><style>.cls-1{fill:#fff;}</style></defs><title>zeus_wagon</title><g id="Layer_2" data-name="Layer 2"><g id="Layer_1-2" data-name="Layer 1"><rect class="cls-1" y="60.5" width="15" height="97" rx="6.3"/><rect class="cls-1" y="127" width="36" height="16.5"/><path class="cls-1" d="M279,123.45h16.25a0,0,0,0,1,0,0v20.34a5.71,5.71,0,0,1-5.71,5.71h-4.84a5.71,5.71,0,0,1-5.71-5.71V123.45A0,0,0,0,1,279,123.45Z"/><path class="cls-1" d="M140.85,43.93q-1.65-1.77-5.13-1.77a8.26,8.26,0,0,0-5.32,1.67c-1.39,1.12-2.17,2.92-2.33,5.38h14.52A7.9,7.9,0,0,0,140.85,43.93Z"/><path class="cls-1" d="M185.75,81.66a9,9,0,0,0-2.51.37,10.21,10.21,0,0,0-2.47,1.07V96.64a6.87,6.87,0,0,0,1.84.43c.66.06,1.3.1,1.94.1a6.27,6.27,0,0,0,5.1-2q1.68-2,1.68-6T190,83.43A5,5,0,0,0,185.75,81.66Z"/><path class="cls-1" d="M279.12,0H20.88A20.88,20.88,0,0,0,0,20.88V128H300V20.88A20.88,20.88,0,0,0,279.12,0ZM153.82,36.25H165V53.56c0,1.77.06,3.23.17,4.4a7.72,7.72,0,0,0,.79,2.91,3.57,3.57,0,0,0,1.79,1.68,8.53,8.53,0,0,0,3.34.53,11.1,11.1,0,0,0,3.17-.53A13.43,13.43,0,0,0,177.66,61V36.25h11.22V71.16H177.66V67.3A32.33,32.33,0,0,1,172,70.89a14.17,14.17,0,0,1-6.15,1.23q-5.78,0-8.89-3.32T153.82,59Zm-25,47.34H77.07V72.06L107.73,34H78.56V22.05h48.56V33.79l-6.18,7.64a16.46,16.46,0,0,1,1.15-1.22q5.3-5,14.53-5.05,8.52,0,12.8,4.31t4.29,12.38v3.92H128.1a8.08,8.08,0,0,0,3.12,6.28q2.88,2.17,8.47,2.18A19,19,0,0,0,146.56,63a21.78,21.78,0,0,0,5.26-2.73h1.24v9a41.55,41.55,0,0,1-7.15,2.21,37.74,37.74,0,0,1-7.43.68q-10.5,0-16.1-4.72t-5.59-13.46q0-7.38,3.87-12.13L96.47,71.69h32.3ZM199.22,95a13.27,13.27,0,0,1-2.68,4.51,11.71,11.71,0,0,1-3.9,2.84,11.53,11.53,0,0,1-4.68,1,13.42,13.42,0,0,1-3.91-.5,17.71,17.71,0,0,1-3.28-1.38V112.7H172.1V76.63l-7.36,26.16h-8.33l-5-18.17-4.93,18.17h-8.41l-7.53-26.95h8.24L143,94.42l5.22-18.58h7l5,18.58,4.13-18.58h16.5v2.81a21.15,21.15,0,0,1,4.06-2.57,11,11,0,0,1,4.79-1,9.24,9.24,0,0,1,7.82,3.69q2.81,3.7,2.8,10.16A17.26,17.26,0,0,1,199.22,95Zm10.12,7.78h-8.66v-27h8.66Zm8.09-34q-4.86,3.31-13.28,3.31a37.9,37.9,0,0,1-8.45-.87,31.65,31.65,0,0,1-6.09-1.93v-9.2h1q.84.6,2,1.29a19.07,19.07,0,0,0,3.12,1.51,25.25,25.25,0,0,0,4,1.23,20.89,20.89,0,0,0,4.72.51,12.2,12.2,0,0,0,4.88-.73,2.33,2.33,0,0,0,1.59-2.16,2,2,0,0,0-.93-1.85,12.38,12.38,0,0,0-3.55-1.1c-.83-.19-2-.39-3.37-.61a37,37,0,0,1-3.87-.79,13.78,13.78,0,0,1-7.06-3.87,9.59,9.59,0,0,1-2.3-6.55q0-5,4.77-8.37t13-3.34a34.58,34.58,0,0,1,7.51.79,30.76,30.76,0,0,1,5.61,1.69V46.6h-1a22.68,22.68,0,0,0-5.67-2.78,20,20,0,0,0-6.46-1.07,12.35,12.35,0,0,0-4.55.74c-1.23.5-1.85,1.2-1.85,2.12A2.24,2.24,0,0,0,202,47.5a11.44,11.44,0,0,0,4,1.31c1.14.23,2.37.45,3.68.67s2.64.49,4,.82a12.45,12.45,0,0,1,6.52,3.62,9.17,9.17,0,0,1,2.12,6.17A10.12,10.12,0,0,1,217.43,68.81Z"/><path class="cls-1" d="M120.94,41.43c-.1.11-.19.23-.28.35Z"/><polygon class="cls-1" points="172.1 75.85 172.1 76.63 172.32 75.85 172.1 75.85"/></g></g></svg>